<?xml version="1.0" standalone="no"?>
<!DOCTYPE svg PUBLIC "-//W3C//DTD SVG 20010904//EN"
 "http://www.w3.org/TR/2001/REC-SVG-20010904/DTD/svg10.dtd">
<svg version="1.0" xmlns="http://www.w3.org/2000/svg"
 width="1024.000000pt" height="1024.000000pt" viewBox="0 0 1024.000000 1024.000000"
 preserveAspectRatio="xMidYMid meet">

<g transform="translate(0.000000,1024.000000) scale(0.100000,-0.100000)"
fill="#000000" stroke="none">
<path d="M20 10216 c0 -13 -6 -27 -12 -30 -7 -3 -3 -3 10 0 12 3 22 1 22 -6 0
-6 10 -4 25 6 14 9 22 21 19 26 -4 6 -9 6 -13 2 -3 -5 -13 -10 -22 -10 -11 -1
-15 5 -12 17 3 11 0 19 -6 19 -6 0 -11 -11 -11 -24z"/>
<path d="M500 10236 c0 -3 14 -11 30 -20 28 -14 30 -13 30 5 0 14 -7 19 -30
19 -16 0 -30 -2 -30 -4z"/>
<path d="M967 10227 c-4 -10 2 -13 19 -9 13 2 24 8 24 13 0 14 -37 10 -43 -4z"/>
<path d="M1060 10222 c0 -24 36 -36 44 -15 4 11 2 13 -9 10 -8 -4 -17 -2 -20
3 -10 17 43 11 59 -6 9 -9 16 -11 16 -4 0 6 16 -2 37 -17 31 -24 34 -25 23 -6
-8 12 -18 19 -24 16 -5 -3 -6 -1 -3 4 11 17 -14 28 -70 32 -47 2 -53 1 -53
-17z"/>
<path d="M1194 10225 c24 -18 31 -19 45 -2 8 10 7 14 -4 14 -8 0 -12 -4 -9 -9
3 -4 1 -8 -5 -8 -5 0 -13 5 -16 10 -3 6 -12 10 -18 10 -7 0 -3 -7 7 -15z"/>
<path d="M1274 10233 c4 -7 2 -13 -3 -13 -16 0 -13 -37 2 -43 15 -6 17 47 2
60 -4 5 -5 2 -1 -4z"/>
<path d="M1500 10229 c0 -5 -6 -7 -12 -3 -7 4 -3 -4 9 -17 12 -13 22 -28 22
-34 -1 -17 18 -17 25 0 3 9 -1 23 -9 31 -8 9 -15 20 -15 25 0 5 -4 9 -10 9 -5
0 -10 -5 -10 -11z"/>
<path d="M1634 10213 c24 -23 29 -25 50 -13 15 7 22 18 19 27 -8 21 -39 11
-35 -12 4 -18 2 -18 -16 3 -11 12 -25 22 -32 22 -7 0 -1 -12 14 -27z"/>
<path d="M1720 10221 c0 -23 12 -38 35 -44 18 -4 18 -5 -2 -6 -21 -1 -28 -11
-24 -33 0 -5 -4 -8 -10 -8 -7 0 -5 -9 4 -24 15 -23 15 -24 -8 -29 -28 -5 -31
2 -12 22 10 11 9 12 -2 6 -11 -6 -13 -4 -8 9 4 9 3 15 -1 13 -4 -3 -13 1 -20
9 -13 15 -9 18 21 15 9 -1 17 2 17 8 0 6 -7 7 -17 4 -9 -4 -14 -2 -10 3 3 6
-4 11 -15 11 -11 1 -29 10 -41 20 -20 17 -20 17 -10 -2 9 -15 7 -22 -5 -32
-14 -11 -14 -13 -2 -12 29 3 41 -1 35 -11 -3 -5 0 -10 8 -10 18 0 30 -26 14
-27 -7 0 -20 -4 -29 -8 -11 -4 -18 -3 -18 4 0 6 4 10 9 9 5 -2 9 2 9 7 0 6 -4
9 -10 7 -5 -1 -7 2 -3 8 3 5 -1 10 -10 10 -9 0 -13 -5 -10 -10 4 -6 3 -16 -2
-23 -12 -18 -10 -50 5 -55 6 -2 15 3 18 12 3 9 14 16 23 16 14 -1 14 -2 -2
-11 -9 -6 -15 -14 -12 -18 2 -5 -3 -15 -12 -22 -12 -10 -14 -10 -9 -1 4 7 2
12 -4 12 -15 0 -7 -25 8 -26 7 -1 17 -2 23 -3 5 0 7 -6 3 -13 -5 -7 -2 -9 9
-5 8 3 21 -1 28 -9 7 -8 19 -12 28 -9 12 5 13 3 5 -5 -13 -13 -7 -53 7 -44 5
3 17 0 26 -5 10 -6 14 -11 9 -11 -5 0 -2 -8 5 -17 8 -10 9 -14 2 -10 -6 4 -14
3 -17 -1 -3 -5 -17 -8 -31 -7 -14 2 -23 -1 -19 -6 8 -13 -20 -11 -34 3 -7 7
-12 9 -12 5 0 -4 -10 1 -22 13 -18 16 -19 23 -9 33 10 9 11 9 6 -4 -7 -18 40
-45 50 -29 4 6 2 10 -4 10 -6 0 -7 8 -4 17 5 12 2 15 -9 10 -19 -7 -31 16 -16
31 7 7 6 10 -6 8 -9 -1 -16 -6 -15 -11 0 -4 -3 -11 -8 -14 -4 -3 -16 -16 -26
-28 -15 -18 -16 -24 -6 -41 12 -19 14 -19 25 -4 14 19 27 12 19 -10 -9 -22
-61 -17 -57 5 3 19 -9 22 -25 6 -8 -8 -13 -8 -17 0 -13 20 -26 12 -24 -14 3
-28 8 -31 27 -12 10 10 12 6 9 -18 -3 -28 -14 -44 -30 -45 -3 0 -5 8 -3 18 1
9 -1 22 -5 27 -4 6 -10 20 -14 31 -8 26 19 41 40 23 11 -9 14 -8 14 5 0 11 5
14 12 10 7 -5 8 -3 3 5 -4 8 -18 11 -34 8 -28 -6 -52 3 -53 19 -1 12 -34 54
-43 54 -3 0 -3 -4 0 -10 3 -5 1 -10 -6 -10 -10 0 -10 -3 -1 -12 7 -7 20 -13
29 -13 17 0 27 -31 12 -41 -5 -3 -9 1 -9 8 0 9 -3 9 -10 -2 -6 -10 -10 -11
-10 -2 0 6 -6 12 -13 12 -8 0 -14 6 -14 13 0 6 -3 23 -7 37 -6 19 -5 21 3 10
9 -13 11 -12 11 5 -1 21 -22 55 -35 55 -5 0 -1 -8 8 -17 12 -14 13 -20 3 -30
-8 -7 -18 -8 -27 -2 -8 5 -9 9 -4 9 6 0 4 4 -4 9 -13 8 -13 12 0 27 12 16 12
17 -3 11 -9 -3 -19 -1 -22 6 -2 7 -5 4 -5 -5 -1 -11 -9 -18 -21 -18 -13 0 -18
5 -14 15 4 8 9 13 13 10 4 -2 8 2 8 10 0 11 -4 12 -13 4 -7 -6 -18 -8 -25 -4
-8 5 -9 1 -4 -14 5 -15 2 -21 -10 -21 -10 0 -14 5 -9 13 5 9 4 9 -5 1 -16 -15
-3 -43 19 -41 10 1 16 5 14 9 -3 4 -1 8 3 8 16 0 32 -57 20 -69 -13 -13 -31
-15 -23 -3 2 4 1 14 -5 22 -6 11 -9 12 -9 2 0 -7 -4 -11 -9 -8 -5 4 -19 2 -32
-2 -19 -7 -20 -10 -6 -15 10 -4 17 -2 17 4 0 6 7 3 16 -5 8 -9 12 -21 8 -27
-5 -8 -1 -8 14 0 25 13 35 14 28 2 -3 -4 6 -6 21 -3 18 3 24 1 19 -7 -4 -6 -1
-11 6 -11 8 -1 5 -7 -7 -16 -19 -15 -19 -16 -2 -28 10 -8 16 -19 15 -26 -2 -7
7 -14 19 -16 13 -2 22 0 20 4 -1 4 4 14 12 23 13 14 17 13 33 -3 19 -19 24
-33 8 -23 -6 3 -7 -1 -4 -10 4 -9 13 -14 21 -11 9 4 11 2 7 -6 -5 -8 -2 -9 10
-5 12 5 16 3 13 -5 -2 -7 -10 -12 -17 -10 -11 3 -11 0 0 -13 11 -13 10 -19 -6
-38 -11 -12 -23 -25 -29 -29 -6 -5 -6 -8 2 -8 6 0 15 5 19 11 5 8 9 7 15 -3 6
-10 18 -14 35 -10 23 4 25 2 19 -17 -6 -20 3 -27 30 -21 6 1 4 -4 -2 -11 -15
-15 -17 -39 -4 -39 5 0 17 7 25 16 9 8 16 11 16 5 0 -5 -8 -15 -17 -21 -11 -7
-14 -13 -7 -16 11 -5 5 -69 -10 -92 -4 -7 0 -10 11 -8 24 5 66 -12 59 -23 -9
-14 -8 -132 2 -188 7 -42 6 -53 -4 -53 -8 0 -11 7 -8 18 5 13 4 14 -4 3 -11
-15 -5 -44 8 -36 4 2 5 -7 2 -20 -4 -22 -10 -25 -43 -25 -37 0 -45 7 -39 35 1
5 -2 6 -7 2 -4 -5 -8 -16 -8 -25 0 -12 -7 -16 -23 -14 -29 3 -55 -11 -58 -31
-3 -20 22 -11 30 10 5 12 9 13 21 3 11 -9 12 -16 5 -25 -8 -10 -4 -14 16 -19
14 -4 29 -5 32 -1 3 3 0 5 -7 5 -7 0 -10 4 -6 9 3 6 -2 14 -11 19 -10 6 -13
12 -6 16 6 3 13 2 17 -4 3 -5 11 -10 16 -10 6 0 8 4 4 9 -3 6 4 9 15 8 24 -2
24 -2 4 -21 -8 -9 -11 -16 -5 -16 6 0 11 -11 11 -23 0 -22 -4 -24 -47 -23 -27
0 -51 4 -54 9 -3 5 -9 2 -12 -7 -4 -9 -3 -15 1 -14 14 3 42 -14 36 -23 -3 -5
0 -9 5 -9 6 0 11 6 11 14 0 8 7 17 16 20 12 4 15 2 10 -9 -3 -9 0 -15 10 -15
9 0 12 5 8 12 -5 7 -3 8 6 3 19 -11 -27 -47 -50 -40 -12 4 -19 -1 -23 -14 -3
-11 -2 -20 2 -19 18 2 31 -3 31 -13 0 -6 -9 -9 -19 -6 -14 3 -18 1 -14 -9 3
-8 10 -14 15 -14 6 0 5 -7 -3 -16 -10 -13 -10 -17 2 -26 12 -8 12 -9 -1 -5 -8
2 -28 -10 -43 -27 -26 -28 -28 -29 -24 -8 3 15 0 22 -9 22 -12 0 -20 -27 -15
-54 1 -4 -3 -14 -9 -20 -5 -7 -6 -17 -2 -22 4 -5 -4 0 -18 11 -14 11 -28 25
-32 30 -5 6 -8 4 -9 -5 -1 -8 -3 -19 -4 -25 -2 -5 -3 -18 -4 -27 -1 -22 -27
-24 -35 -3 -3 8 -10 15 -15 15 -7 0 -7 -9 -1 -26 7 -16 7 -23 0 -19 -6 3 -10
2 -10 -4 0 -6 -6 -8 -14 -5 -7 3 -24 -8 -37 -23 -26 -32 -29 -33 -61 -33 -17
0 -19 -3 -10 -12 7 -7 12 -17 12 -22 0 -13 -34 35 -36 51 -1 7 2 13 7 13 5 0
9 7 9 16 0 8 5 12 10 9 6 -3 10 -1 10 4 0 17 -24 13 -47 -8 -12 -11 -24 -17
-27 -14 -3 4 -7 -14 -8 -38 -1 -42 -2 -42 -5 -8 -3 31 -7 36 -24 32 -21 -6
-25 -19 -7 -25 9 -3 9 -6 0 -12 -7 -4 -12 -2 -12 3 0 6 -9 11 -20 11 -11 0
-20 7 -20 15 0 8 5 15 11 15 5 0 7 5 4 10 -3 6 1 17 10 26 22 22 10 31 -13 10
-11 -9 -26 -14 -36 -10 -21 8 -21 -3 1 -24 16 -16 15 -17 -1 -20 -11 -2 -15
-9 -12 -18 3 -9 1 -12 -4 -9 -6 3 -10 0 -11 -7 -1 -7 -5 -2 -9 12 l-8 25 -1
-27 c-1 -16 -6 -28 -12 -28 -5 0 -7 5 -4 10 3 6 1 10 -4 10 -6 0 -11 9 -11 21
0 11 -4 18 -9 15 -5 -3 -14 1 -21 9 -17 21 -30 19 -30 -5 0 -11 -7 -20 -15
-20 -12 0 -13 4 -5 19 14 27 13 28 -12 27 -14 -1 -27 8 -35 24 l-13 25 0 -27
c0 -20 -4 -26 -15 -22 -9 4 -15 11 -14 18 4 29 -2 45 -18 49 -14 4 -12 5 5 6
12 0 22 6 22 11 0 14 27 13 36 -2 4 -7 3 -8 -4 -4 -8 4 -12 0 -12 -11 1 -16 3
-15 19 5 20 23 46 29 56 13 6 -11 45 -11 45 0 0 3 17 9 37 12 42 7 59 -8 40
-33 -10 -13 -10 -13 5 -2 13 10 17 10 22 0 3 -7 3 -2 0 11 -5 18 -3 22 7 16 9
-5 10 -5 4 2 -18 17 -64 33 -70 23 -9 -14 -34 0 -28 16 4 10 -4 14 -31 14 -41
0 -42 -2 -20 -25 24 -23 14 -26 -28 -6 -31 14 -36 20 -25 31 10 10 9 12 -6 6
-10 -3 -21 -6 -23 -6 -3 0 0 -8 5 -18 9 -16 6 -19 -17 -17 -18 1 -28 7 -30 21
-10 65 -10 66 -37 47 -16 -12 -23 -25 -20 -40 2 -15 -1 -20 -10 -17 -8 3 -12
20 -10 48 1 31 -2 43 -12 43 -11 0 -14 -10 -11 -39 4 -45 -10 -51 -19 -8 -3
17 -10 33 -15 36 -6 4 -7 -2 -3 -15 4 -14 2 -21 -7 -21 -8 0 -9 -3 -3 -8 14
-10 18 -30 16 -75 -1 -25 2 -36 9 -32 5 3 10 2 10 -4 0 -5 -6 -11 -12 -14 -10
-3 -10 -9 0 -27 8 -12 9 -19 3 -15 -6 3 -11 1 -11 -6 0 -7 -10 -1 -23 12 -12
13 -21 22 -20 20 2 -2 -6 -10 -17 -18 -11 -8 -20 -19 -20 -25 0 -7 6 -4 13 6
13 17 52 13 41 -5 -3 -5 -2 -9 3 -8 25 4 52 -3 56 -15 4 -9 -2 -12 -19 -10
-19 2 -23 -1 -15 -10 6 -7 8 -16 4 -19 -3 -4 2 -7 13 -7 27 1 67 37 58 52 -4
8 -3 10 2 5 5 -5 9 -16 10 -25 4 -68 3 -65 21 -51 15 13 16 12 11 -9 -4 -12
-2 -20 3 -16 5 3 9 12 9 19 0 8 9 19 20 25 18 10 21 7 26 -19 6 -30 34 -34 34
-4 0 12 2 12 15 -1 8 -8 15 -19 15 -25 0 -17 36 -31 89 -33 27 -2 49 -5 49 -8
-2 -22 4 -31 17 -26 9 3 15 0 15 -9 0 -13 -26 -13 -72 1 -10 3 -23 2 -30 -2
-7 -5 -25 -7 -40 -5 -23 2 -27 -1 -22 -16 5 -14 4 -15 -4 -4 -6 8 -22 15 -36
16 -19 0 -22 -2 -14 -12 6 -7 18 -13 27 -13 13 0 14 -2 2 -9 -10 -7 -19 -5
-26 6 -7 9 -27 16 -45 17 -36 1 -51 20 -26 29 9 4 15 1 13 -5 -1 -6 3 -12 10
-15 7 -3 11 4 10 17 -1 19 -6 21 -34 17 -20 -4 -33 -2 -33 5 0 6 -11 3 -25 -6
-14 -9 -25 -14 -25 -11 0 3 -14 -2 -30 -10 -34 -18 -52 -13 -44 13 4 11 -2 8
-16 -8 -12 -14 -18 -19 -14 -11 4 9 2 12 -7 9 -8 -3 -24 -1 -36 3 -17 6 -23 5
-24 -6 -1 -14 -3 -20 -8 -42 -2 -5 -6 1 -10 12 -5 11 -4 25 1 32 7 8 3 19 -10
33 l-20 22 -7 -24 c-4 -12 -9 -31 -11 -40 -4 -13 1 -18 18 -19 13 -1 5 -5 -16
-8 -23 -3 -41 -12 -43 -21 -3 -9 -1 -11 4 -5 12 15 28 16 75 2 50 -15 82 -11
74 8 -3 9 0 12 9 9 10 -4 11 -12 5 -30 -8 -20 -6 -24 8 -24 9 0 26 -3 38 -6
14 -4 21 -1 21 9 0 10 -8 14 -23 11 -13 -2 -26 1 -30 8 -5 8 -2 9 9 5 12 -4
17 -1 17 10 0 14 4 12 24 -6 16 -15 29 -20 38 -15 10 6 10 4 -1 -9 -12 -15
-12 -17 3 -11 9 3 16 11 16 17 0 6 3 7 6 4 4 -4 2 -12 -3 -19 -15 -20 -24 -50
-13 -43 6 3 10 1 10 -4 0 -6 -7 -11 -16 -11 -11 0 -14 6 -9 20 4 11 2 20 -4
20 -6 0 -10 -5 -9 -11 2 -6 -3 -14 -11 -17 -8 -3 -11 0 -7 7 10 16 -5 14 -18
-3 -17 -22 -139 -25 -131 -3 4 9 -5 12 -32 11 -26 -2 -42 4 -54 18 -15 16 -20
17 -38 6 -12 -7 -21 -19 -21 -26 0 -7 -4 -10 -10 -7 -5 3 -10 15 -10 26 0 12
-4 17 -11 14 -6 -4 -8 -13 -5 -21 7 -18 1 -18 -29 2 -14 9 -25 12 -25 6 0 -5
13 -15 30 -22 28 -12 42 -40 20 -40 -19 0 -5 -25 20 -37 23 -12 20 -13 -30
-10 -59 2 -60 4 -46 63 5 17 3 23 -4 19 -5 -3 -10 -18 -11 -33 0 -15 -3 -22
-5 -16 -3 6 -16 9 -30 6 -36 -7 -49 17 -22 40 11 10 26 15 32 11 6 -3 7 -2 3
2 -12 13 -57 17 -57 5 0 -5 -5 -10 -11 -10 -7 0 -9 10 -5 25 6 23 4 24 -22 19
-21 -4 -31 -2 -35 10 -4 9 -11 16 -16 16 -7 0 -11 -74 -11 -207 1 -179 3 -208
17 -218 13 -10 13 -14 3 -20 -9 -5 -11 -4 -6 3 4 7 2 12 -3 12 -7 0 -11 -1232
-11 -3990 l0 -3990 5120 0 5120 0 0 5120 0 5120 -4048 0 c-3225 0 -4051 -3
-4061 -12 -11 -10 -12 -10 -7 -1 6 10 -38 12 -198 11 -181 -1 -206 -3 -206
-17z m828 -16 c-3 -3 -9 2 -12 12 -6 14 -5 15 5 6 7 -7 10 -15 7 -18z m-878
-39 c0 -11 -19 -15 -25 -6 -3 5 1 10 9 10 9 0 16 -2 16 -4z m117 -46 c10 -28
10 -30 -10 -30 -18 0 -22 6 -22 30 0 17 5 30 10 30 6 0 16 -13 22 -30z m260
-6 c-3 -3 -12 -4 -19 -1 -8 3 -5 6 6 6 11 1 17 -2 13 -5z m4 -77 c-10 -9 -11
-8 -5 6 3 10 9 15 12 12 3 -3 0 -11 -7 -18z m-266 3 c3 -6 -1 -7 -9 -4 -18 7
-21 14 -7 14 6 0 13 -4 16 -10z m-451 -46 c6 -15 4 -15 -11 -3 -10 7 -20 15
-22 16 -2 2 3 3 11 3 9 0 19 -7 22 -16z m445 -35 c21 -29 21 -29 2 -17 -12 7
-21 20 -21 28 0 13 -1 13 -10 0 -8 -13 -10 -12 -10 3 0 25 13 21 39 -14z m276
1 c-3 -5 2 -10 12 -11 14 0 15 -2 3 -6 -8 -3 -18 -11 -23 -17 -4 -6 -5 0 -3
14 6 32 5 30 12 30 3 0 2 -4 -1 -10z m-224 -17 c13 -15 12 -15 -8 -4 -24 12
-29 21 -14 21 5 0 15 -7 22 -17z m-461 -7 c0 -2 -9 -6 -20 -9 -11 -3 -18 -1
-14 4 5 9 34 13 34 5z m715 -26 c3 -5 2 -10 -4 -10 -5 0 -13 5 -16 10 -3 6 -2
10 4 10 5 0 13 -4 16 -10z m-661 -28 c2 -4 -4 -8 -14 -8 -10 0 -16 4 -14 8 3
4 9 8 14 8 5 0 11 -4 14 -8z m309 -27 c17 -16 12 -51 -7 -58 -8 -3 -12 7 -12
34 0 45 0 44 19 24z m377 -5 c6 -11 8 -20 6 -20 -3 0 -10 9 -16 20 -6 11 -8
20 -6 20 3 0 10 -9 16 -20z m-445 -9 c3 -5 1 -12 -5 -16 -5 -3 -10 1 -10 9 0
18 6 21 15 7z m105 -17 c0 -8 -5 -12 -10 -9 -6 4 -8 11 -5 16 9 14 15 11 15
-7z m-285 -22 c-8 -8 -25 10 -19 20 4 6 9 5 15 -3 4 -7 6 -15 4 -17z m202 -5
c-8 -15 -17 -24 -20 -21 -6 6 25 55 31 50 1 -2 -4 -15 -11 -29z m193 19 c0 -8
-4 -17 -9 -21 -12 -7 -24 12 -16 25 9 15 25 12 25 -4z m-83 -59 c1 -15 -2 -27
-6 -27 -4 0 -8 6 -8 13 0 6 -4 20 -8 31 -6 14 -4 17 6 14 7 -2 15 -17 16 -31z
m333 29 c0 -2 -8 -10 -17 -17 -16 -13 -17 -12 -4 4 13 16 21 21 21 13z m-426
-21 c-16 -13 -17 -16 -4 -24 12 -8 10 -10 -8 -8 -12 0 -22 5 -22 11 0 10 31
35 44 36 6 0 1 -7 -10 -15z m201 5 c3 -5 1 -10 -4 -10 -6 0 -11 5 -11 10 0 6
2 10 4 10 3 0 8 -4 11 -10z m-342 -24 c4 -10 1 -13 -9 -9 -15 6 -19 23 -5 23
5 0 11 -7 14 -14z m-29 -55 c-2 -3 -12 3 -22 13 -16 17 -16 18 5 5 12 -7 20
-15 17 -18z m182 14 c4 -8 9 -13 13 -11 4 3 8 -6 9 -20 3 -35 -14 -30 -22 7
-4 22 -10 30 -21 26 -8 -4 -17 -2 -20 3 -4 6 3 10 15 10 11 0 23 -7 26 -15z
m112 -16 c-3 -8 -7 -3 -11 10 -4 17 -3 21 5 13 5 -5 8 -16 6 -23z m-184 15
c20 -8 21 -21 1 -21 -8 0 -16 6 -19 14 -6 15 -4 15 18 7z m391 -4 c3 -5 1 -10
-4 -10 -6 0 -11 5 -11 10 0 6 2 10 4 10 3 0 8 -4 11 -10z m-535 -10 c0 -5 -4
-10 -10 -10 -5 0 -10 5 -10 10 0 6 5 10 10 10 6 0 10 -4 10 -10z m370 -16 c0
-8 -19 -13 -24 -6 -3 5 1 9 9 9 8 0 15 -2 15 -3z m-165 -34 c3 -5 1 -10 -4
-10 -6 0 -11 5 -11 10 0 6 2 10 4 10 3 0 8 -4 11 -10z m275 -2 c0 -4 -4 -8 -9
-8 -6 0 -12 4 -15 8 -3 5 1 9 9 9 8 0 15 -4 15 -9z m-166 -15 c-12 -9 -13 -13
-4 -13 7 0 11 -3 7 -6 -3 -4 -13 -4 -22 0 -13 5 -14 8 -3 19 6 8 19 14 26 14
11 0 10 -4 -4 -14z m-165 -30 c-11 -12 -10 -17 3 -27 11 -8 14 -17 8 -26 -7
-12 -10 -11 -16 5 -4 11 -12 23 -18 27 -6 4 -5 13 5 24 9 11 9 15 2 10 -8 -4
-13 -1 -13 9 0 13 4 14 21 5 17 -10 18 -14 8 -27z m107 -10 c-3 -4 -1 -12 5
-20 6 -7 7 -13 3 -13 -15 0 -34 38 -27 56 5 15 7 15 15 -1 6 -9 7 -19 4 -22z
m-66 17 c0 -5 -2 -10 -4 -10 -3 0 -8 5 -11 10 -3 6 -1 10 4 10 6 0 11 -4 11
-10z m18 -12 c-4 -17 -20 -28 -31 -21 -4 3 0 11 10 19 22 17 24 17 21 2z m130
-20 c-2 -6 -13 -14 -24 -18 -15 -6 -20 -4 -20 11 0 13 7 19 24 19 13 0 22 -5
20 -12z m42 0 c0 -4 -4 -8 -9 -8 -6 0 -12 4 -15 8 -3 5 1 9 9 9 8 0 15 -4 15
-9z m312 -33 c3 -14 1 -25 -3 -25 -5 0 -9 11 -9 25 0 14 2 25 4 25 2 0 6 -11
8 -25z m-486 -4 c0 -11 -5 -17 -13 -14 -14 6 -17 16 -6 26 11 12 19 7 19 -12z
m69 -21 c-3 -6 4 -10 17 -11 14 0 17 -3 8 -6 -8 -2 -22 -7 -30 -10 -29 -12
-39 -11 -33 2 2 8 11 11 19 8 8 -3 14 -2 13 3 -2 14 0 24 7 24 3 0 2 -4 -1
-10z m75 -5 c7 -9 8 -15 2 -15 -5 0 -12 7 -16 15 -3 8 -4 15 -2 15 2 0 9 -7
16 -15z m-157 -16 c12 -12 16 -19 10 -15 -7 4 -13 2 -13 -3 0 -6 -5 -11 -11
-11 -5 0 -7 5 -4 10 8 14 -18 13 -32 -1 -8 -8 -13 -8 -17 0 -4 6 -2 11 4 11 6
0 9 4 5 9 -3 5 3 12 12 14 10 3 19 5 21 6 2 0 13 -9 25 -20z m-93 7 c0 -3 -4
-8 -10 -11 -5 -3 -10 -1 -10 4 0 6 5 11 10 11 6 0 10 -2 10 -4z m295 -6 c-3
-5 1 -10 10 -10 20 0 15 -22 -6 -28 -11 -3 -11 -2 1 7 13 9 13 11 -2 11 -18 0
-23 11 -11 23 10 10 15 8 8 -3z m365 0 c0 -5 -2 -10 -4 -10 -3 0 -8 5 -11 10
-3 6 -1 10 4 10 6 0 11 -4 11 -10z m-392 -30 c15 -24 7 -26 -15 -4 -11 11 -19
12 -27 4 -8 -8 -7 -13 4 -20 8 -5 10 -10 4 -10 -5 0 -19 7 -30 16 -10 8 -14
13 -8 10 7 -3 17 1 24 9 17 20 33 19 48 -5z m377 10 c3 -5 1 -10 -4 -10 -6 0
-11 5 -11 10 0 6 2 10 4 10 3 0 8 -4 11 -10z m-585 -56 c0 -22 -16 -17 -17 6
-1 11 2 18 8 15 5 -4 9 -13 9 -21z m160 2 c0 -20 -16 -36 -35 -36 -13 0 -26
-4 -30 -10 -3 -5 -11 -7 -19 -4 -9 4 -12 -7 -12 -40 1 -24 -3 -42 -7 -39 -5 3
-7 -7 -5 -23 2 -18 -2 -29 -12 -31 -12 -4 -12 -3 -2 5 11 7 10 12 -3 26 -10
10 -12 16 -5 16 7 0 9 7 6 16 -4 10 -2 13 6 8 7 -5 8 -3 2 7 -15 25 -13 39 12
58 13 10 21 21 18 24 -3 3 0 8 7 13 7 4 10 3 5 -4 -4 -7 1 -10 14 -9 11 1 20
7 20 14 0 7 9 13 20 13 11 0 20 -2 20 -4z m414 -11 c-4 -8 -8 -15 -10 -15 -2
0 -4 7 -4 15 0 8 4 15 10 15 5 0 7 -7 4 -15z m-564 -30 c-7 -8 -17 -15 -23
-15 -5 0 -2 9 8 20 21 23 35 19 15 -5z m290 -6 c-13 -23 -17 -24 -17 -4 0 8 4
15 9 15 5 0 6 5 2 12 -4 7 -3 8 4 4 9 -5 9 -13 2 -27z m-40 -20 c0 -5 0 -12 0
-16 0 -5 -9 -9 -20 -9 -27 -2 -27 31 0 33 11 1 20 -2 20 -8z m-122 -14 c3 -3
-4 -5 -16 -5 -11 0 -23 4 -27 9 -6 10 33 6 43 -4z m4 -52 c-5 -10 -7 -25 -4
-33 2 -8 2 -12 -2 -8 -4 3 -8 12 -10 20 -1 7 -5 19 -9 26 -6 8 -1 12 13 12 16
0 19 -4 12 -17z m-122 -28 c0 -12 -19 -12 -23 0 -4 9 -1 12 9 8 7 -3 14 -7 14
-8z m220 -21 c0 -8 -4 -14 -9 -14 -6 0 -9 9 -8 19 1 22 17 18 17 -5z m27 4 c2
-17 0 -19 -7 -8 -5 8 -6 18 -4 22 8 12 10 10 11 -14z m-80 -34 c2 -6 -3 -11
-10 -11 -8 0 -14 6 -14 14 0 15 19 12 24 -3z m26 1 c4 -8 2 -17 -3 -20 -6 -4
-10 3 -10 14 0 25 6 27 13 6z m-96 -37 c-3 -8 -6 -5 -6 6 -1 11 2 17 5 13 3
-3 4 -12 1 -19z m-122 2 c3 -5 1 -10 -4 -10 -6 0 -11 5 -11 10 0 6 2 10 4 10
3 0 8 -4 11 -10z m35 -14 c0 -3 -4 -8 -10 -11 -5 -3 -10 -1 -10 4 0 6 5 11 10
11 6 0 10 -2 10 -4z m-70 -83 c0 -5 -5 -15 -10 -23 -8 -12 -10 -11 -10 8 0 12
5 22 10 22 6 0 10 -3 10 -7z m311 -36 c-10 -9 -11 -8 -5 6 3 10 9 15 12 12 3
-3 0 -11 -7 -18z m-175 -54 c-3 -3 -13 -2 -23 2 -17 7 -17 8 2 15 19 7 34 -5
21 -17z m-125 -10 c13 -16 12 -17 -3 -4 -17 13 -22 21 -14 21 2 0 10 -8 17
-17z m89 -6 c0 -2 -13 -13 -29 -25 -21 -15 -32 -18 -37 -10 -4 7 -3 8 4 4 6
-4 17 2 24 14 10 16 38 29 38 17z m6100 -22 c372 -56 696 -263 906 -576 104
-156 171 -319 211 -515 17 -84 18 -223 18 -2714 0 -2509 -1 -2630 -18 -2730
-64 -360 -237 -648 -519 -860 -215 -162 -441 -242 -728 -259 -227 -14 -5165
-6 -5255 7 -590 92 -1021 509 -1131 1097 -18 96 -19 201 -19 2750 l0 2650 27
112 c131 549 537 937 1083 1038 110 21 5291 21 5425 0z m-6183 -42 c2 -6 -7
-9 -19 -8 -30 3 -30 3 -24 14 8 12 39 7 43 -6z m-72 -65 c1 -9 -7 -19 -17 -21
-12 -3 -16 -1 -11 6 4 6 6 25 5 42 -2 27 -1 28 10 10 7 -11 13 -28 13 -37z
m42 0 c-3 -8 -6 -5 -6 6 -1 11 2 17 5 13 3 -3 4 -12 1 -19z m-897 4 c0 -5 -7
-9 -15 -9 -8 0 -12 4 -9 9 3 4 9 8 15 8 5 0 9 -4 9 -8z m787 -28 c-3 -3 -12
-4 -19 -1 -8 3 -5 6 6 6 11 1 17 -2 13 -5z m-828 -61 c-2 -35 -2 -35 -6 -8 -3
16 -10 33 -16 37 -8 5 -6 8 6 8 13 0 17 -8 16 -37z m711 5 c0 -6 -6 -5 -15 2
-8 7 -15 14 -15 16 0 2 7 1 15 -2 8 -4 15 -11 15 -16z m125 2 c-3 -5 -12 -10
-18 -10 -7 0 -6 4 3 10 19 12 23 12 15 0z m-805 -24 c0 -3 -4 -8 -10 -11 -5
-3 -10 -1 -10 4 0 6 5 11 10 11 6 0 10 -2 10 -4z m670 0 c0 -3 -4 -8 -10 -11
-5 -3 -10 -1 -10 4 0 6 5 11 10 11 6 0 10 -2 10 -4z m-725 -16 c3 -5 2 -10 -4
-10 -5 0 -13 5 -16 10 -3 6 -2 10 4 10 5 0 13 -4 16 -10z m690 -67 c-2 -10 -4
-19 -4 -21 -1 -2 -6 0 -11 3 -8 5 -7 11 1 21 15 18 18 18 14 -3z m-215 -3 c0
-5 -2 -10 -4 -10 -3 0 -8 5 -11 10 -3 6 -1 10 4 10 6 0 11 -4 11 -10z m-237
-18 c3 7 6 3 6 -10 1 -13 -3 -20 -9 -17 -6 3 -7 -1 -4 -9 3 -9 12 -16 20 -16
8 0 14 -5 14 -11 0 -5 6 -7 13 -3 9 5 9 4 0 -6 -17 -18 -57 -22 -42 -4 12 14
-5 29 -21 19 -5 -3 -17 -2 -26 3 -15 8 -15 10 0 15 10 4 15 3 11 -3 -3 -6 -1
-10 6 -10 7 0 10 13 7 36 -4 30 -2 33 8 19 9 -12 13 -13 17 -3z m-38 -2 c3 -5
-1 -10 -10 -10 -9 0 -13 5 -10 10 3 6 8 10 10 10 2 0 7 -4 10 -10z m415 6 c0
-3 -4 -8 -10 -11 -5 -3 -10 -1 -10 4 0 6 5 11 10 11 6 0 10 -2 10 -4z m-310
-48 c0 -4 -7 -8 -15 -8 -8 0 -15 4 -15 8 0 5 7 9 15 9 8 0 15 -4 15 -9z m70
-19 c0 -5 -2 -9 -4 -9 -2 0 -11 -3 -19 -6 -9 -3 -16 2 -19 14 -4 15 -1 18 18
14 13 -2 24 -8 24 -13z m104 -4 c3 -8 1 -15 -4 -15 -6 0 -10 7 -10 15 0 8 2
15 4 15 2 0 6 -7 10 -15z m70 6 c3 -5 -1 -11 -9 -14 -9 -4 -12 -1 -8 9 6 16
10 17 17 5z m76 -11 c0 -5 -11 -12 -25 -16 -14 -3 -25 -13 -25 -22 0 -8 -3
-12 -7 -9 -3 4 -11 3 -17 -2 -6 -4 -19 -11 -29 -14 -15 -6 -16 -4 -7 14 6 11
15 17 21 13 5 -3 22 6 36 20 26 26 53 34 53 16z m-210 -24 c0 -2 3 -13 6 -23
3 -11 2 -14 -3 -7 -4 6 -17 16 -28 22 -19 11 -19 11 3 12 12 0 22 -2 22 -4z
m-45 -15 c3 -5 2 -12 -3 -15 -5 -3 -9 1 -9 9 0 17 3 19 12 6z m-152 -96 c-3
-9 -8 -14 -10 -11 -3 3 -2 9 2 15 9 16 15 13 8 -4z m40 -10 c-7 -21 -13 -19
-13 6 0 11 4 18 10 14 5 -3 7 -12 3 -20z m45 2 c15 6 15 5 2 -11 -8 -11 -16
-14 -18 -7 -2 6 -8 9 -13 5 -11 -6 -11 -1 -2 23 7 16 8 16 11 1 2 -11 9 -15
20 -11z m-85 -47 c-3 -11 -9 -18 -13 -15 -5 3 -11 1 -15 -5 -4 -6 -12 -7 -23
-1 -10 6 -24 4 -41 -6 l-26 -15 25 20 c18 15 29 18 42 11 17 -9 22 -5 19 14
-1 5 3 6 8 3 5 -4 12 -2 16 4 10 16 14 12 8 -10z m-188 -9 c-3 -5 -1 -12 5
-16 6 -4 8 -10 5 -15 -8 -12 -45 11 -45 27 0 7 9 13 21 13 11 0 18 -4 14 -9z
m-351 -26 c-4 -17 -2 -27 8 -30 20 -8 20 -44 0 -40 -11 1 -16 10 -14 24 3 22
3 22 -24 4 -27 -17 -28 -17 -21 0 4 10 7 21 7 23 0 3 5 2 10 -1 6 -3 10 3 10
15 0 12 5 18 10 15 6 -3 10 -1 10 4 0 6 2 11 5 11 3 0 3 -11 -1 -25z m397 1
c12 7 11 -7 -1 -26 -9 -13 -10 -13 -10 0 0 13 -2 13 -11 0 -9 -12 -10 -12 -5
3 3 10 6 24 7 30 0 8 2 8 6 -1 2 -6 9 -10 14 -6z m349 -16 c0 -5 -5 -10 -11
-10 -5 0 -7 5 -4 10 3 6 8 10 11 10 2 0 4 -4 4 -10z m-627 -29 c-3 -10 0 -22
6 -26 6 -3 11 -3 10 2 -3 20 2 33 13 33 9 0 9 -3 0 -12 -9 -9 -9 -15 0 -25 9
-11 5 -13 -24 -11 -23 1 -34 6 -31 14 2 6 -3 14 -13 18 -12 4 -15 2 -10 -9 3
-8 2 -14 -2 -14 -22 4 -23 -3 -2 -21 15 -13 18 -20 9 -20 -8 0 -20 10 -28 21
-11 18 -11 23 1 30 10 7 10 9 1 9 -7 0 -13 4 -13 10 0 5 16 9 35 8 19 -1 38 2
42 5 10 11 11 8 6 -12z m-309 -36 c-5 -11 -9 -12 -19 -2 -9 8 -10 14 -2 19 16
9 27 0 21 -17z m490 -11 c3 -8 2 -12 -4 -9 -6 3 -10 10 -10 16 0 14 7 11 14
-7z m163 0 c-3 -3 -12 -4 -19 -1 -8 3 -5 6 6 6 11 1 17 -2 13 -5z m-467 -26
c0 -6 -3 -8 -7 -5 -3 4 -13 1 -22 -6 -14 -11 -14 -10 -2 6 15 20 31 22 31 5z
m653 -13 c-3 -9 -8 -14 -10 -11 -3 3 -2 9 2 15 9 16 15 13 8 -4z m-623 -7 c0
-6 -3 -8 -7 -5 -3 4 -12 2 -20 -4 -8 -8 -13 -8 -13 -1 0 10 15 19 33 21 4 1 7
-4 7 -11z m-53 -150 c-3 -8 -6 -5 -6 6 -1 11 2 17 5 13 3 -3 4 -12 1 -19z
m-91 -19 c7 -11 -27 -11 -45 0 -9 6 -5 9 13 9 15 0 29 -4 32 -9z m155 -56 c13
-16 12 -17 -3 -4 -17 13 -22 21 -14 21 2 0 10 -8 17 -17z m-277 -18 c-4 -8 -8
-15 -10 -15 -2 0 -4 7 -4 15 0 8 4 15 10 15 5 0 7 -7 4 -15z m297 -8 c-10 -9
-11 -8 -5 6 3 10 9 15 12 12 3 -3 0 -11 -7 -18z m-335 -35 c-8 -9 -19 -12 -23
-8 -4 4 -1 11 7 16 8 6 11 10 7 10 -4 0 -2 6 5 14 11 12 14 12 16 -1 2 -9 -3
-22 -12 -31z m166 -10 c-10 -3 -10 -7 0 -20 12 -15 11 -15 -4 -4 -18 14 -13
47 5 35 8 -5 7 -8 -1 -11z m-42 -9 c0 -16 -36 -17 -46 -1 -4 7 -3 8 4 4 7 -4
12 -3 12 2 0 5 7 9 15 9 8 0 15 -6 15 -14z m-100 3 c0 -2 -7 -7 -16 -10 -8 -3
-12 -2 -9 4 6 10 25 14 25 6z m216 -48 c4 -7 3 -8 -5 -4 -6 4 -14 0 -17 -8 -3
-9 -16 -16 -28 -15 l-21 0 21 9 c12 5 25 13 29 19 8 14 12 14 21 -1z m-243
-25 c-3 -7 -6 -13 -8 -13 -2 0 -5 6 -8 13 -3 8 1 14 8 14 7 0 11 -6 8 -14z
m18 -60 c13 -16 12 -17 -3 -4 -10 7 -18 15 -18 17 0 8 8 3 21 -13z m220 -56
c-10 -9 -11 -8 -5 6 3 10 9 15 12 12 3 -3 0 -11 -7 -18z m199 -57 c0 -5 -2
-10 -4 -10 -3 0 -8 5 -11 10 -3 6 -1 10 4 10 6 0 11 -4 11 -10z m40 6 c0 -3
-4 -8 -10 -11 -5 -3 -10 -1 -10 4 0 6 5 11 10 11 6 0 10 -2 10 -4z m-23 -217
c2 -11 -1 -18 -6 -14 -6 3 -9 14 -8 25 2 23 10 17 14 -11z m-46 -16 c13 -16
12 -17 -3 -4 -10 7 -18 15 -18 17 0 8 8 3 21 -13z m-396 -53 c3 -5 1 -10 -4
-10 -6 0 -11 5 -11 10 0 6 2 10 4 10 3 0 8 -4 11 -10z"/>
<path d="M3423 7973 c9 -2 23 -2 30 0 6 3 -1 5 -18 5 -16 0 -22 -2 -12 -5z"/>
<path d="M3548 7973 c7 -3 16 -2 19 1 4 3 -2 6 -13 5 -11 0 -14 -3 -6 -6z"/>
<path d="M3638 7973 c23 -2 59 -2 80 0 20 2 1 4 -43 4 -44 0 -61 -2 -37 -4z"/>
<path d="M3783 7973 c9 -2 25 -2 35 0 9 3 1 5 -18 5 -19 0 -27 -2 -17 -5z"/>
<path d="M4352 7973 c280 -2 736 -2 1015 0 280 1 51 2 -507 2 -558 0 -787 -1
-508 -2z"/>
<path d="M2900 7629 c-4 -66 -10 -92 -24 -108 -10 -11 -16 -27 -13 -35 4 -9
-1 -22 -9 -31 -9 -8 -11 -15 -5 -15 6 0 11 -5 11 -11 0 -5 -4 -8 -8 -5 -4 3
-7 -8 -6 -25 1 -16 -2 -31 -7 -34 -4 -3 -4 -16 1 -29 5 -13 6 -27 3 -30 -3 -3
-6 -19 -5 -36 0 -16 -4 -32 -9 -35 -16 -11 -10 -27 9 -20 12 4 11 1 -6 -15
-13 -12 -19 -26 -15 -33 9 -14 11 -147 2 -147 -8 0 2 -59 12 -65 15 -10 -3
-35 -25 -36 -16 -1 -17 -2 -3 -6 9 -2 17 -9 17 -14 0 -6 -4 -7 -10 -4 -6 3
-10 -4 -10 -17 0 -18 2 -20 10 -8 13 19 13 8 0 -25 -5 -14 -6 -24 -1 -21 11 7
22 -19 13 -29 -4 -4 -7 -12 -7 -18 -1 -7 -7 -11 -14 -9 -7 1 -10 -2 -7 -7 4
-5 2 -12 -4 -16 -5 -3 -10 -11 -10 -18 0 -6 6 -3 13 8 11 14 16 15 22 5 5 -9
4 -11 -3 -6 -7 4 -12 2 -12 -3 0 -6 6 -11 13 -11 6 -1 1 -7 -13 -15 -22 -13
-23 -14 -5 -15 11 0 16 -4 10 -8 -16 -12 -17 -35 -1 -29 15 6 16 -17 1 -30 -4
-5 -4 -1 0 7 8 13 7 13 -9 0 -17 -13 -17 -15 -1 -20 21 -7 21 -18 0 -34 -13
-9 -14 -17 -6 -37 5 -14 6 -31 1 -38 -4 -8 -8 -43 -9 -80 -1 -36 -3 -91 -4
-121 -2 -30 -1 -59 2 -65 13 -23 11 -47 -3 -42 -11 5 -13 0 -6 -22 4 -16 4
-34 0 -41 -4 -7 -5 -21 -3 -31 3 -11 -1 -27 -8 -36 -12 -14 -12 -16 0 -8 11 6
13 4 6 -11 -4 -10 -7 -29 -6 -42 0 -13 -3 -21 -8 -17 -5 3 -12 1 -15 -4 -3 -5
1 -11 8 -14 9 -4 14 -18 14 -35 -1 -16 3 -35 7 -42 6 -10 4 -12 -8 -7 -14 5
-17 0 -17 -24 0 -18 4 -28 10 -24 13 8 13 -25 0 -45 -5 -9 -5 -19 1 -26 10
-12 8 -36 -6 -68 -5 -12 -3 -21 6 -27 9 -6 11 -11 3 -16 -6 -5 -11 -26 -11
-48 -1 -22 -6 -41 -12 -43 -9 -3 -9 -7 -1 -17 12 -15 -4 -60 -18 -51 -4 2 -8
-4 -8 -15 0 -12 5 -18 13 -15 7 3 15 1 18 -4 4 -6 1 -10 -5 -10 -6 0 -9 -4 -5
-9 3 -5 0 -13 -6 -17 -7 -4 -9 -3 -5 4 3 6 1 14 -5 17 -14 9 -8 -47 6 -57 5
-4 2 -15 -8 -26 -13 -14 -16 -29 -11 -57 4 -26 2 -35 -5 -30 -6 3 -9 11 -6 16
4 5 1 9 -4 9 -15 0 -14 -16 3 -33 12 -11 11 -15 -6 -26 -13 -8 -17 -18 -13
-31 4 -13 2 -20 -7 -20 -10 0 -10 -2 1 -9 9 -6 10 -11 3 -15 -6 -4 -9 -13 -6
-21 4 -8 10 -12 15 -9 5 3 7 9 5 13 -6 9 11 37 18 30 3 -3 -2 -18 -10 -34 -8
-16 -13 -37 -11 -47 3 -11 0 -18 -10 -18 -8 0 -12 -4 -9 -9 4 -5 1 -11 -6 -13
-13 -5 -4 -38 11 -38 5 0 12 8 14 18 4 15 5 15 6 0 0 -9 -8 -24 -20 -32 -21
-14 -18 -43 3 -30 6 4 9 1 6 -7 -3 -8 -12 -13 -21 -11 -8 1 -19 -3 -23 -9 -4
-7 -3 -9 3 -6 6 4 14 0 17 -9 4 -11 -1 -18 -14 -21 -21 -6 -28 -23 -9 -23 5 0
7 -5 3 -12 -5 -8 -2 -9 9 -5 10 3 17 4 17 1 0 -2 -11 -9 -25 -14 -25 -9 -34
-35 -15 -42 6 -2 13 -17 15 -33 4 -21 3 -26 -4 -15 -5 8 -8 17 -5 21 9 16 -14
18 -27 3 -10 -12 -10 -20 -1 -35 7 -11 8 -19 2 -19 -5 0 -10 -7 -10 -15 0 -8
-4 -15 -10 -15 -5 0 -10 9 -10 20 0 11 -4 20 -10 20 -5 0 -10 -5 -10 -11 0
-20 -28 -39 -47 -32 -17 7 -17 6 0 -11 10 -10 16 -25 13 -33 -3 -8 -1 -11 4
-8 6 3 10 13 10 21 0 8 5 14 11 14 6 0 8 -7 5 -16 -3 -9 -6 -20 -6 -25 0 -24
-113 -47 -135 -29 -11 9 -11 14 3 29 18 18 52 25 52 11 0 -11 28 -6 42 8 9 9
9 12 -3 12 -8 0 -21 8 -28 18 -9 14 -23 18 -50 16 -20 -2 -44 -3 -53 -3 -10
-1 -18 -8 -18 -16 0 -8 -5 -15 -11 -15 -5 0 -7 5 -4 10 3 6 -1 10 -9 10 -9 0
-16 -8 -16 -17 -1 -17 -1 -17 -14 0 -15 20 -28 22 -25 5 4 -30 -3 -44 -29 -62
l-27 -20 19 22 c16 18 16 23 4 35 -10 10 -20 12 -31 5 -12 -6 -17 -5 -17 3 0
7 -7 8 -17 4 -10 -4 -36 -9 -58 -10 -22 -2 -34 -1 -27 2 9 3 10 9 2 18 -7 9
-6 16 5 25 13 11 14 10 8 -6 -6 -16 -5 -17 9 -6 9 7 14 21 11 33 -5 18 -7 18
-27 -6 -24 -28 -41 -33 -32 -10 3 9 0 15 -9 15 -21 0 -19 -16 5 -33 11 -8 17
-16 14 -20 -3 -3 -1 -14 4 -24 9 -16 6 -18 -21 -18 -46 0 -59 15 -33 38 12 10
15 15 7 11 -10 -5 -13 -3 -8 9 5 13 -2 16 -36 15 -23 0 -36 -3 -30 -5 10 -3
10 -10 2 -24 -5 -11 -14 -17 -20 -14 -5 4 -9 2 -9 -3 0 -6 -7 -13 -16 -16 -12
-4 -15 -2 -11 9 4 8 1 17 -5 21 -7 4 -8 3 -4 -4 4 -7 1 -12 -7 -12 -8 0 -17
-6 -20 -14 -4 -9 -15 -12 -33 -8 -19 3 -25 1 -20 -7 5 -7 0 -11 -13 -11 -11 0
-22 8 -24 18 -4 16 -5 16 -6 0 0 -10 -6 -18 -11 -18 -6 0 -9 -3 -9 -7 4 -26
-2 -35 -15 -24 -10 9 -17 7 -27 -6 -12 -15 -12 -16 2 -11 20 8 46 -6 30 -16
-6 -4 -11 -2 -11 4 0 6 -5 8 -10 5 -6 -4 -8 -10 -5 -15 3 -4 -2 -10 -10 -14
-9 -3 -15 0 -15 9 0 8 -5 15 -11 15 -6 0 -9 6 -6 13 3 7 -4 19 -15 26 -18 11
-19 10 -13 -8 8 -25 -3 -28 -19 -5 -10 13 -12 13 -12 -5 0 -11 3 -18 6 -16 3
2 12 0 20 -6 10 -6 11 -9 3 -9 -17 0 -17 -27 0 -34 9 -5 9 -7 0 -12 -9 -4 -10
-11 -3 -25 10 -17 6 -23 -12 -20 -4 0 -2 -10 4 -24 13 -29 4 -45 -15 -25 -10
10 -9 11 1 5 11 -6 12 -3 4 11 -5 11 -12 26 -15 34 -4 8 -5 2 -4 -15 1 -20 -2
-29 -11 -27 -10 2 -10 -2 0 -20 6 -13 13 -29 14 -36 3 -17 -29 -48 -34 -33 -2
6 -8 9 -13 5 -5 -3 -2 -12 6 -20 8 -9 13 -20 10 -25 -4 -5 0 -9 7 -9 9 0 9 -3
-2 -10 -8 -5 -10 -10 -4 -10 6 0 11 -6 11 -14 0 -9 -6 -12 -16 -8 -14 5 -14 3
-2 -11 15 -19 8 -22 -20 -6 -18 9 -19 8 -8 -10 10 -15 10 -25 1 -45 -7 -16 -8
-28 -2 -31 17 -10 12 -38 -6 -31 -8 3 -12 2 -9 -4 3 -6 2 -10 -3 -10 -9 0 -10
-1 -15 -75 -3 -29 -9 -49 -15 -48 -6 2 -9 -4 -6 -11 4 -10 -5 -16 -25 -21 -24
-5 -31 -12 -31 -31 0 -18 -4 -23 -12 -18 -9 5 -9 2 1 -9 9 -11 10 -21 4 -29
-5 -7 -9 -38 -9 -69 1 -48 -2 -56 -16 -54 -14 3 -15 -1 -8 -19 4 -13 4 -29 0
-37 -5 -7 -7 -24 -3 -36 3 -16 1 -23 -8 -23 -12 0 -12 -2 0 -9 11 -7 11 -14
-3 -41 -20 -42 -20 -46 2 -29 16 13 16 13 2 -6 -8 -11 -21 -24 -27 -28 -10 -6
-13 -117 -13 -497 0 -437 2 -500 19 -602 99 -575 546 -995 1136 -1067 63 -8
849 -11 2645 -11 2149 0 2572 3 2660 15 583 78 1025 519 1115 1113 13 84 15
366 13 2032 -3 1686 -8 2526 -16 2483 -1 -7 -9 -13 -18 -13 -10 0 -14 5 -10
16 3 8 2 12 -4 9 -6 -3 -10 5 -10 19 0 14 -5 26 -11 26 -6 0 -8 9 -4 23 5 17
4 19 -4 7 -7 -10 -11 -11 -11 -2 0 6 -5 12 -10 12 -7 0 -7 -6 0 -20 12 -22 -3
-29 -17 -7 -11 17 -13 38 -3 32 4 -3 13 2 19 9 10 12 8 13 -8 9 -14 -3 -21 0
-22 8 0 8 -4 5 -9 -6 -6 -14 -9 -15 -10 -5 -1 8 -3 23 -5 33 -2 13 1 17 12 13
9 -4 13 -1 11 6 -3 7 -10 14 -16 14 -7 1 -17 2 -23 3 -5 0 -7 5 -4 11 3 6 -1
7 -9 4 -11 -4 -19 2 -25 17 -5 13 -10 18 -10 12 -1 -7 -6 -13 -11 -13 -6 0 -8
11 -4 28 l6 27 -16 -22 c-16 -22 -39 -32 -33 -15 1 4 -3 7 -8 7 -6 0 -9 -4 -7
-9 2 -5 -4 -3 -13 4 -22 19 -29 6 -8 -16 17 -17 17 -18 -1 -11 -13 5 -25 0
-41 -18 -16 -17 -25 -21 -29 -12 -5 9 -7 9 -12 -1 -4 -9 -10 -10 -19 -2 -9 8
-14 6 -19 -5 -3 -9 -10 -14 -15 -10 -5 3 -13 1 -16 -5 -4 -6 -3 -10 2 -9 20 3
23 -2 12 -22 -9 -17 -13 -19 -20 -8 -6 10 -12 4 -24 -24 -14 -35 -31 -54 -19
-22 4 8 1 15 -4 15 -6 0 -14 -9 -17 -20 -6 -18 -17 -24 -37 -21 -5 0 -8 -5 -8
-13 0 -19 -32 -30 -42 -14 -6 10 -8 8 -8 -4 0 -10 -7 -18 -15 -18 -8 0 -14 -3
-14 -7 3 -20 -2 -33 -12 -33 -8 0 -8 4 0 14 18 21 -7 32 -27 12 -11 -11 -12
-16 -4 -16 7 0 10 -5 7 -10 -5 -8 -11 -7 -21 1 -9 7 -14 8 -13 3 1 -5 0 -12
-1 -16 -1 -5 -3 -11 -4 -16 0 -4 -12 -19 -25 -32 l-23 -25 7 25 c4 18 4 21 -4
11 -5 -8 -19 -16 -32 -18 -12 -2 -28 -8 -35 -14 -8 -7 -14 -7 -19 1 -3 5 -14
10 -23 9 -16 0 -16 -1 0 -7 18 -7 12 -26 -9 -28 -38 -3 -43 -5 -43 -18 0 -14
-20 -24 -75 -36 -5 -1 -21 -1 -35 0 -14 1 -22 -1 -18 -6 11 -10 -20 -30 -59
-39 -18 -3 -33 -11 -33 -17 0 -6 8 -7 18 -3 13 5 14 4 5 -6 -9 -9 -15 -9 -26
0 -12 9 -16 8 -22 -6 -6 -15 -9 -14 -21 12 -8 17 -12 22 -10 13 3 -9 -2 -19
-10 -22 -8 -3 -14 1 -14 10 0 10 -5 14 -15 10 -44 -18 -51 -18 -31 -2 22 18 5
22 -24 6 -13 -7 -21 -7 -26 2 -4 7 -3 8 4 4 7 -4 12 -5 12 -2 0 8 -77 46 -93
46 -7 0 -19 6 -25 12 -7 7 -20 13 -30 13 -9 0 -17 5 -17 12 0 6 -4 15 -8 20
-5 4 -8 4 -7 -2 1 -5 2 -17 0 -25 -1 -11 -4 -9 -9 5 -4 11 -17 20 -27 20 -10
0 -18 6 -17 13 2 6 -4 12 -12 12 -10 0 -15 10 -15 30 0 17 -7 44 -15 59 -8 16
-11 31 -8 35 4 3 1 6 -5 6 -17 0 -52 37 -44 46 4 4 2 4 -5 1 -6 -4 -13 -4 -15
0 -2 5 -46 49 -98 98 -73 69 -64 59 37 -46 73 -75 134 -147 138 -160 3 -13 4
-1012 3 -2219 l-3 -2195 -21 -46 c-28 -60 -93 -125 -153 -153 l-46 -21 -1985
0 -1985 0 -46 21 c-66 31 -114 78 -146 142 l-28 57 -5 2610 c-3 1436 -7 2571
-10 2524z m5317 -754 c0 -20 -4 -19 -17 5 -8 15 -8 18 3 14 8 -3 14 -11 14
-19z m-5632 -2185 c-10 -11 -21 -17 -24 -14 -3 3 3 12 13 20 28 20 32 17 11
-6z m-170 0 c3 -5 1 -10 -4 -10 -6 0 -11 5 -11 10 0 6 2 10 4 10 3 0 8 -4 11
-10z m-427 -14 c-13 -14 -28 -12 -28 5 0 5 9 9 20 9 17 0 19 -2 8 -14z m527
-85 c-6 -5 -25 10 -25 20 0 5 6 4 14 -3 8 -7 12 -15 11 -17z m-712 -2 c-8 -8
-13 -7 -18 2 -5 8 -4 10 3 5 7 -4 12 -2 12 5 0 7 3 9 7 6 4 -4 2 -12 -4 -18z
m94 -1 c0 -13 -1 -17 -4 -10 -3 6 -9 10 -14 6 -10 -6 -12 9 -2 19 12 13 19 7
20 -15z m43 16 c0 -8 -19 -13 -24 -6 -3 5 1 9 9 9 8 0 15 -2 15 -3z m247 0
c-3 -3 -12 -4 -19 -1 -8 3 -5 6 6 6 11 1 17 -2 13 -5z m120 -28 c-3 -8 -15
-14 -26 -13 -15 1 -17 4 -9 14 12 15 22 17 13 3 -3 -5 -1 -10 4 -10 6 0 11 8
11 17 0 9 3 14 6 10 4 -3 4 -13 1 -21z m-449 -14 c2 -7 -1 -12 -8 -12 -6 0 -9
4 -6 9 4 5 1 12 -4 14 -6 3 -5 4 2 3 6 -1 14 -8 16 -14z m525 -9 c-7 -2 -13
-11 -13 -19 0 -9 4 -12 10 -9 6 3 7 -1 4 -9 -8 -20 -24 -11 -24 13 0 20 9 31
24 30 6 0 5 -3 -1 -6z m77 1 c0 -8 -19 -13 -24 -6 -3 5 1 9 9 9 8 0 15 -2 15
-3z m-646 -19 c-4 -8 -10 -15 -16 -15 -5 0 -6 -4 -3 -10 11 -18 -1 -11 -21 12
-12 15 -13 18 -3 10 13 -10 19 -9 29 3 16 19 21 19 14 0z m-119 -25 c3 -6 -1
-7 -9 -4 -18 7 -21 14 -7 14 6 0 13 -4 16 -10z m635 -10 c0 -5 -2 -10 -4 -10
-3 0 -8 5 -11 10 -3 6 -1 10 4 10 6 0 11 -4 11 -10z m180 -50 c0 -5 -2 -10 -4
-10 -3 0 -8 5 -11 10 -3 6 -1 10 4 10 6 0 11 -4 11 -10z m-1158 -1010 c-6 -43
-12 -37 -12 13 0 25 4 37 8 29 5 -7 7 -26 4 -42z"/>
<path d="M8520 7169 c0 -5 5 -7 10 -4 6 3 10 8 10 11 0 2 -4 4 -10 4 -5 0 -10
-5 -10 -11z"/>
<path d="M8263 6995 c0 -8 4 -12 9 -9 5 3 6 10 3 15 -9 13 -12 11 -12 -6z"/>
<path d="M7910 6796 c0 -2 8 -10 18 -17 15 -13 16 -12 3 4 -13 16 -21 21 -21
13z"/>
<path d="M6186 5945 c5 -12 9 -13 20 -4 20 17 28 5 13 -20 -15 -23 -9 -34 15
-25 11 4 13 10 7 18 -21 25 5 35 99 39 88 3 86 3 -32 5 -111 2 -127 0 -122
-13z"/>
<path d="M6453 5953 c9 -2 23 -2 30 0 6 3 -1 5 -18 5 -16 0 -22 -2 -12 -5z"/>
<path d="M6558 5953 c7 -3 16 -2 19 1 4 3 -2 6 -13 5 -11 0 -14 -3 -6 -6z"/>
<path d="M6156 5924 c-20 -19 -20 -22 1 -42 16 -16 16 -15 10 7 -3 14 -1 31 5
38 15 18 3 16 -16 -3z"/>
<path d="M6250 5928 c0 -6 3 -8 7 -5 3 4 11 2 18 -3 8 -7 12 -6 12 3 0 7 -9
14 -19 14 -10 1 -18 -3 -18 -9z"/>
<path d="M6108 5868 c-15 -15 -18 -38 -18 -158 l0 -140 327 0 c179 0 324 3
321 6 -4 3 -149 5 -323 5 l-316 -1 4 66 c3 37 11 70 17 74 9 6 9 9 -1 13 -14
5 -10 7 37 22 11 4 14 12 10 29 -6 26 8 46 17 24 3 -8 6 -6 6 5 1 20 17 23 23
5 3 -9 9 -8 21 4 24 24 21 31 -9 24 -22 -6 -25 -4 -20 9 3 9 2 13 -4 10 -6 -3
-10 -13 -10 -21 0 -8 -4 -14 -10 -14 -5 0 -10 5 -10 11 0 5 -4 7 -10 4 -5 -3
-10 0 -10 8 0 27 -24 35 -42 15z m40 -30 c16 -16 15 -28 -3 -28 -8 0 -15 6
-15 14 0 8 -6 17 -12 19 -9 4 -8 6 3 6 8 1 20 -4 27 -11z m-18 -48 c0 -5 -4
-10 -10 -10 -5 0 -10 5 -10 10 0 6 5 10 10 10 6 0 10 -4 10 -10z m28 -15 c-3
-3 -9 2 -12 12 -6 14 -5 15 5 6 7 -7 10 -15 7 -18z"/>
<path d="M5990 5735 c0 -8 -6 -15 -12 -15 -8 0 -9 -3 -3 -8 16 -11 19 -62 3
-62 -11 0 -11 -2 0 -9 8 -5 11 -17 7 -32 -5 -22 -12 -24 -72 -27 -95 -4 -91
-12 5 -12 l82 0 0 90 c0 50 -2 90 -5 90 -3 0 -5 -7 -5 -15z"/>
<path d="M4530 5460 c0 -11 2 -20 4 -20 2 0 6 9 9 20 3 11 1 20 -4 20 -5 0 -9
-9 -9 -20z"/>
<path d="M5318 5473 c7 -3 16 -2 19 1 4 3 -2 6 -13 5 -11 0 -14 -3 -6 -6z"/>
<path d="M5700 5472 c0 -4 19 -6 41 -4 28 3 44 0 50 -9 6 -10 9 -11 9 -1 0 8
21 12 70 12 61 0 69 -2 63 -17 -4 -11 -3 -14 5 -9 8 5 12 0 12 -13 0 -27 -46
-53 -59 -33 -3 5 -15 -2 -25 -17 l-20 -26 21 18 c15 13 23 15 28 7 4 -7 1 -17
-6 -22 -11 -8 -11 -9 2 -5 9 3 22 0 28 -6 7 -7 12 -7 11 -2 -4 19 0 48 5 43
11 -11 15 -57 6 -62 -5 -4 -16 0 -24 8 -8 9 -19 11 -27 6 -11 -7 -10 -11 3
-25 9 -9 22 -13 28 -9 8 4 9 3 5 -4 -4 -7 -3 -12 2 -12 5 0 14 -11 20 -25 10
-21 9 -26 -10 -36 -11 -6 -18 -7 -15 -2 4 5 0 10 -8 10 -21 0 -18 -14 4 -27
13 -7 22 -7 26 0 3 5 16 10 28 9 20 -1 20 -1 -3 -8 -21 -6 -24 -13 -26 -51 -1
-25 -2 -48 -3 -52 -1 -5 -140 -8 -310 -8 l-310 0 -4 43 -4 42 -1 -47 -2 -48
345 0 345 0 0 195 0 195 -150 0 c-82 0 -150 -3 -150 -8z m290 -32 c0 -5 -2
-10 -4 -10 -3 0 -8 5 -11 10 -3 6 -1 10 4 10 6 0 11 -4 11 -10z m0 -29 c0 -3
-9 -12 -21 -19 -18 -12 -19 -11 -10 6 6 11 7 22 3 26 -3 4 1 4 11 0 9 -3 17
-9 17 -13z m0 -30 c0 -5 -7 -11 -14 -14 -10 -4 -13 -1 -9 9 6 15 23 19 23 5z
m0 -37 c0 -8 -5 -12 -10 -9 -6 4 -8 11 -5 16 9 14 15 11 15 -7z m0 -28 c0 -2
-9 -6 -20 -9 -11 -3 -20 -1 -20 4 0 5 9 9 20 9 11 0 20 -2 20 -4z m0 -38 c0
-16 -3 -19 -11 -11 -6 6 -8 16 -5 22 11 17 16 13 16 -11z"/>
<path d="M6090 5285 l0 -195 347 0 c190 0 344 2 341 5 -3 3 -37 6 -77 6 -42 1
-71 5 -71 11 0 6 -7 5 -16 -3 -13 -10 -17 -10 -25 2 -5 8 -9 9 -9 3 0 -6 -6
-11 -13 -11 -8 0 -14 7 -14 14 0 8 6 12 13 9 14 -5 30 11 21 20 -9 9 -47 -16
-44 -29 1 -9 -45 -13 -187 -15 -170 -3 -188 -1 -176 13 9 11 9 15 1 15 -7 0
-9 5 -4 13 12 19 11 67 -1 67 -6 0 -4 4 4 9 8 6 18 7 22 5 4 -3 5 1 2 9 -3 8
1 14 10 14 8 0 13 -4 10 -9 -3 -4 -1 -8 5 -8 5 0 12 6 15 13 5 10 7 10 12 0 8
-18 27 -16 20 2 -7 20 4 51 14 35 3 -6 14 -8 23 -4 18 7 23 24 7 24 -5 0 -10
4 -10 9 0 6 16 3 35 -5 19 -8 35 -11 35 -7 0 5 10 -4 23 -19 23 -26 23 -26 36
-6 7 11 19 17 26 14 18 -7 30 10 13 18 -7 4 -4 5 8 2 12 -2 21 2 21 10 0 7 -5
11 -11 8 -6 -3 -2 2 8 10 11 9 26 16 34 16 8 0 12 6 9 14 -7 18 15 27 28 12
14 -15 18 -46 6 -46 -5 0 -11 6 -14 13 -2 6 -8 9 -12 5 -8 -7 -5 -14 20 -58 9
-16 15 -19 15 -9 0 8 -5 20 -12 27 -9 9 -8 12 5 12 9 0 17 -5 17 -10 0 -6 6
-5 14 2 9 9 10 15 3 20 -6 3 -12 16 -14 29 -3 17 -1 19 11 10 7 -6 21 -9 30
-5 9 3 16 1 16 -5 0 -6 7 -11 15 -11 9 0 12 6 8 17 -5 12 -3 14 7 8 10 -6 12
-4 6 11 -5 10 -9 25 -9 33 0 7 -13 -2 -28 -20 -16 -19 -29 -28 -29 -21 0 6 5
12 10 12 6 0 10 5 10 11 0 5 -4 7 -10 4 -17 -11 -11 17 8 32 9 7 13 13 7 12
-23 -3 -45 2 -45 10 0 5 35 9 77 10 42 1 79 4 82 6 2 3 -149 5 -337 5 l-342 0
0 -195z m505 175 c3 -5 1 -10 -4 -10 -6 0 -11 5 -11 10 0 6 2 10 4 10 3 0 8
-4 11 -10z m15 -31 c0 -6 -5 -7 -12 -3 -7 5 -9 2 -5 -8 4 -12 1 -14 -13 -11
-10 3 -17 10 -14 17 6 14 44 19 44 5z m-130 -59 c0 -5 -2 -10 -4 -10 -3 0 -8
5 -11 10 -3 6 -1 10 4 10 6 0 11 -4 11 -10z m-210 -24 c0 -3 -4 -8 -10 -11 -5
-3 -10 -1 -10 4 0 6 5 11 10 11 6 0 10 -2 10 -4z m187 -38 c-3 -8 -6 -5 -6 6
-1 11 2 17 5 13 3 -3 4 -12 1 -19z m-17 -20 c0 -4 -7 -8 -15 -8 -8 0 -15 4
-15 8 0 5 7 9 15 9 8 0 15 -4 15 -9z m-293 -41 c1 -11 1 -18 0 -16 -2 2 -8 11
-15 20 -9 12 -9 16 1 16 7 0 14 -9 14 -20z"/>
<path d="M5840 5341 c0 -5 7 -11 15 -15 8 -3 12 -12 9 -21 -5 -11 -2 -14 10
-9 15 6 15 9 -5 30 -25 26 -29 28 -29 15z"/>
<path d="M6520 5330 c0 -5 5 -10 11 -10 5 0 7 5 4 10 -3 6 -8 10 -11 10 -2 0
-4 -4 -4 -10z"/>
<path d="M6637 5320 c-3 -11 -1 -18 4 -14 5 3 9 -2 9 -11 0 -9 5 -13 11 -9 6
3 15 0 20 -7 6 -10 9 -8 9 9 0 12 -4 22 -9 22 -5 0 -16 7 -24 15 -13 12 -15
12 -20 -5z"/>
<path d="M6741 5322 c-1 -8 -6 -10 -13 -6 -8 5 -7 1 2 -10 15 -19 26 -7 17 17
-4 9 -6 9 -6 -1z"/>
<path d="M6522 5297 c-8 -10 -5 -13 13 -15 18 -1 23 2 19 13 -7 18 -18 19 -32
2z"/>
<path d="M5884 5274 c-10 -8 -14 -13 -7 -10 6 4 14 0 17 -6 5 -10 7 -10 12 -1
3 7 13 9 22 6 18 -6 17 -5 -9 15 -12 9 -20 8 -35 -4z"/>
<path d="M6382 5270 c0 -14 2 -19 5 -12 2 6 2 18 0 25 -3 6 -5 1 -5 -13z"/>
<path d="M6340 5269 c0 -5 5 -7 10 -4 6 3 10 8 10 11 0 2 -4 4 -10 4 -5 0 -10
-5 -10 -11z"/>
<path d="M6616 5267 c6 -15 42 -17 48 -2 2 6 -9 12 -25 13 -20 2 -27 -2 -23
-11z"/>
<path d="M6316 5251 c-3 -4 4 -17 17 -27 22 -19 22 -19 4 2 -9 11 -14 24 -10
27 3 4 4 7 0 7 -3 0 -8 -4 -11 -9z"/>
<path d="M6290 5219 c0 -5 5 -7 10 -4 6 3 10 8 10 11 0 2 -4 4 -10 4 -5 0 -10
-5 -10 -11z"/>
<path d="M6496 5205 c4 -8 8 -15 10 -15 2 0 4 7 4 15 0 8 -4 15 -10 15 -5 0
-7 -7 -4 -15z"/>
<path d="M6195 5200 c-3 -5 -1 -10 4 -10 6 0 11 5 11 10 0 6 -2 10 -4 10 -3 0
-8 -4 -11 -10z"/>
<path d="M6648 5173 c7 -3 16 -2 19 1 4 3 -2 6 -13 5 -11 0 -14 -3 -6 -6z"/>
<path d="M6631 5141 c-9 -6 -9 -10 1 -19 18 -15 40 -1 23 15 -6 6 -17 8 -24 4z"/>
<path d="M4530 5115 c0 -14 4 -25 9 -25 4 0 6 11 3 25 -2 14 -6 25 -8 25 -2 0
-4 -11 -4 -25z"/>
<path d="M6506 5127 c3 -10 9 -15 12 -12 3 3 0 11 -7 18 -10 9 -11 8 -5 -6z"/>
<path d="M5210 5116 c0 -8 -12 -17 -27 -19 -26 -4 -26 -4 5 -6 26 -1 32 3 32
19 0 11 -2 20 -5 20 -3 0 -5 -6 -5 -14z"/>
<path d="M6595 5120 c3 -5 8 -10 11 -10 2 0 4 5 4 10 0 6 -5 10 -11 10 -5 0
-7 -4 -4 -10z"/>
<path d="M6802 5025 l-12 -25 -350 0 -350 0 0 -195 0 -195 345 0 345 0 15 -24
c13 -19 14 -29 5 -45 -10 -21 -17 -21 -360 -21 l-350 0 0 -195 0 -195 343 0
c331 0 345 -1 362 -20 15 -17 16 -24 7 -45 l-12 -25 -1647 -2 c-907 0 -1634
-3 -1616 -5 22 -3 30 -9 27 -18 -6 -16 12 -30 21 -16 3 6 12 8 20 4 10 -3 15
1 15 11 0 14 11 16 65 14 48 -2 65 -6 65 -16 0 -8 6 -12 15 -8 16 6 19 -2 7
-20 -9 -15 -37 -3 -37 16 0 11 -11 15 -43 14 -23 0 -41 -4 -40 -10 2 -5 9 -8
16 -8 17 2 15 -13 -4 -20 -8 -3 -13 -10 -9 -15 3 -5 0 -13 -6 -17 -7 -4 -9 -3
-5 4 9 15 -12 26 -28 13 -7 -6 -17 -7 -21 -3 -5 4 -5 1 -1 -6 6 -10 11 -10 22
-1 12 10 13 9 8 -5 -3 -9 -1 -16 6 -16 6 0 8 -5 4 -12 -6 -10 -4 -10 8 0 10 8
18 9 22 3 4 -6 -3 -15 -14 -21 -30 -16 -24 -26 15 -26 38 0 43 12 24 49 l-12
22 24 -20 c13 -11 28 -26 32 -32 4 -7 13 -13 20 -13 7 0 6 4 -3 10 -17 10 -14
15 18 24 22 7 31 -7 12 -19 -15 -9 -12 -27 3 -20 6 4 3 -1 -7 -9 -19 -15 -19
-16 -2 -16 10 0 27 10 38 22 l19 23 18 -24 17 -23 36 20 c27 15 35 17 35 6 0
-8 -9 -14 -20 -14 -11 0 -17 -3 -13 -7 13 -13 30 -10 48 10 9 10 19 14 22 8 4
-5 23 -7 43 -4 29 5 35 3 31 -8 -4 -10 1 -15 12 -15 15 0 16 4 8 19 -7 15 -7
18 2 12 7 -4 16 -2 20 5 10 17 31 3 23 -16 -3 -8 -2 -14 3 -13 25 4 54 -2 49
-11 -4 -6 -12 -7 -18 -4 -7 4 -8 3 -4 -1 4 -5 15 -10 25 -12 23 -4 73 17 66
28 -9 15 13 10 27 -7 7 -8 21 -13 31 -11 20 6 25 -8 6 -16 -10 -4 -10 -8 -2
-14 7 -4 14 -17 17 -28 4 -18 5 -17 6 3 1 16 5 21 14 16 7 -5 6 0 -3 11 -9 11
-10 16 -2 11 6 -4 12 -3 12 2 0 5 11 10 24 10 19 0 22 -3 13 -13 -7 -7 -14
-11 -17 -10 -3 2 -6 -5 -7 -15 -1 -13 3 -17 14 -13 11 4 14 2 11 -8 -3 -8 -10
-13 -16 -12 -5 1 -13 -4 -16 -13 -4 -11 -2 -12 13 -5 10 6 24 17 31 26 12 14
11 18 -1 26 -11 7 -11 9 4 9 9 0 17 -6 17 -13 0 -8 13 -25 29 -40 23 -20 31
-23 35 -11 3 7 1 13 -5 11 -6 -1 -16 7 -22 18 -7 11 -16 23 -22 27 -5 4 -6 10
-2 14 10 11 47 12 47 2 0 -4 -4 -8 -10 -8 -5 0 -7 -7 -3 -16 3 -9 9 -12 12 -7
9 12 31 14 31 2 0 -6 9 -8 20 -4 11 4 20 2 20 -4 0 -26 20 -8 26 23 4 26 10
33 21 29 9 -4 22 2 29 12 12 16 14 16 14 3 0 -9 6 -19 13 -22 9 -5 9 -7 0 -12
-15 -7 1 -44 19 -44 7 0 7 4 -1 13 -12 15 -5 27 16 27 8 0 11 -4 8 -10 -3 -5
-1 -10 4 -10 21 0 10 27 -15 39 -15 6 -24 14 -21 18 4 3 14 0 23 -7 10 -9 18
-10 22 -4 8 11 84 13 92 2 3 -3 2 -10 -2 -14 -5 -4 -8 -2 -8 4 0 7 -5 12 -11
12 -6 0 -9 -7 -6 -14 4 -10 1 -13 -9 -9 -7 3 -14 10 -14 17 -1 6 -7 0 -15 -14
-15 -27 -20 -61 -7 -58 14 3 62 -22 62 -33 0 -6 -9 -13 -20 -16 -19 -5 -19 -6
2 -23 15 -11 18 -19 10 -24 -7 -4 -12 -2 -12 3 0 6 -7 11 -15 11 -11 0 -10 -5
6 -24 12 -14 28 -22 36 -19 11 4 11 8 3 13 -8 5 -7 9 5 14 25 9 28 8 21 -10
-4 -9 -2 -13 5 -8 6 3 3 -5 -6 -20 -13 -20 -23 -25 -38 -20 -17 5 -19 3 -14
-17 l6 -24 -19 23 c-16 19 -23 21 -39 12 -17 -9 -20 -8 -15 5 4 8 3 23 0 32
-6 15 -9 15 -17 3 -9 -12 -10 -12 -5 3 7 21 -13 23 -40 3 -14 -11 -22 -11 -32
-3 -7 5 -12 6 -11 1 4 -21 -2 -28 -11 -14 -5 8 -10 10 -10 3 0 -8 -13 -8 -51
2 -52 14 -74 25 -49 25 7 0 10 3 7 6 -4 4 -14 1 -24 -7 -9 -8 -14 -9 -10 -2 4
6 -7 19 -28 32 -19 11 -35 25 -35 31 0 5 -5 10 -12 10 -6 0 -3 -9 7 -20 11
-12 13 -20 6 -20 -7 0 -9 -4 -6 -10 3 -5 1 -10 -5 -10 -6 0 -8 -6 -4 -12 4 -7
-1 -6 -12 3 -25 20 -34 19 -62 -9 -12 -12 -27 -20 -32 -17 -5 3 -12 0 -15 -5
-5 -8 5 -9 32 -3 21 4 81 8 133 7 117 -1 188 -26 257 -89 l48 -44 -52 -52 -52
-52 -37 33 c-53 46 -93 60 -176 60 -118 0 -205 -53 -246 -150 -21 -51 -21
-155 1 -212 22 -58 98 -129 155 -146 53 -16 131 -15 181 3 48 17 119 67 102
73 -7 2 -20 -6 -30 -17 -18 -21 -19 -21 -24 -2 -4 15 -1 18 12 13 14 -5 14 -3
3 10 -11 14 -10 16 6 11 11 -2 23 0 26 6 4 6 2 11 -3 11 -6 0 -11 5 -11 11 0
8 4 8 14 0 10 -8 19 -7 38 8 l24 19 2 -27 c1 -19 -3 -28 -13 -28 -8 0 -15 4
-15 9 0 5 -4 7 -9 4 -5 -4 17 -32 50 -63 l60 -57 -33 -33 c-46 -48 -142 -92
-225 -105 -95 -14 -188 2 -279 47 -85 42 -135 93 -178 184 -29 62 -31 73 -31
176 0 104 2 114 32 175 37 76 96 137 173 179 30 17 51 31 47 31 -13 0 -69 -30
-105 -57 -18 -13 -41 -25 -52 -26 -11 -1 -20 -6 -21 -12 -1 -5 -5 1 -9 15 -6
18 -8 20 -9 7 -1 -22 -26 -49 -35 -39 -4 3 -4 -2 0 -13 6 -15 4 -17 -10 -12
-13 5 -17 2 -15 -11 3 -32 -1 -41 -15 -36 -10 4 -12 -2 -9 -20 3 -16 1 -26 -7
-26 -7 0 -9 -8 -5 -19 4 -14 0 -21 -15 -26 -23 -7 -26 -34 -7 -55 10 -12 9
-12 -5 -2 -19 15 -31 3 -17 -18 5 -8 9 -19 9 -25 0 -15 -39 38 -41 55 0 10 -2
11 -6 2 -2 -6 -9 -10 -14 -6 -5 3 -8 0 -7 -8 2 -7 -3 -12 -10 -10 -10 2 -10
-2 -2 -18 6 -12 21 -20 35 -20 33 0 31 -19 -4 -53 -29 -26 -48 -36 -37 -18 4
5 0 8 -6 7 -14 -2 -18 -9 -18 -28 0 -8 3 -9 8 -3 9 13 35 13 44 0 10 -14 -2
-27 -19 -21 -8 3 -11 2 -8 -3 3 -6 -3 -15 -12 -21 -16 -10 -15 -10 5 -5 15 4
24 1 28 -9 3 -9 10 -13 15 -10 5 3 9 -4 9 -15 0 -12 -5 -21 -11 -21 -5 0 -7
-5 -3 -11 5 -8 9 -8 14 1 4 7 13 9 19 6 12 -8 15 -27 4 -25 -27 4 -32 -2 -21
-26 6 -13 15 -22 21 -18 5 3 6 -3 3 -15 -4 -11 -2 -23 4 -27 5 -3 10 -19 10
-36 0 -16 5 -29 11 -29 5 0 8 3 6 8 -3 4 1 13 9 20 12 10 14 10 14 -2 0 -8 10
-16 23 -18 15 -2 21 -9 20 -23 -2 -24 18 -39 30 -22 5 7 5 -2 2 -20 -6 -28 -4
-33 12 -33 14 0 15 -2 5 -9 -11 -7 -10 -9 3 -15 10 -3 13 -11 9 -18 -6 -9 -3
-9 9 1 9 7 14 17 11 22 -3 5 -1 9 5 9 5 0 15 -13 23 -30 14 -33 23 -37 32 -15
3 8 11 15 18 14 10 0 10 -2 1 -6 -7 -2 -13 -9 -13 -14 0 -6 4 -7 10 -4 6 3 10
1 10 -5 0 -6 5 -8 10 -5 6 4 17 1 25 -5 9 -8 15 -8 15 -2 0 6 -6 13 -12 15 -7
3 -8 6 -2 6 5 1 20 -8 32 -19 24 -22 42 -26 42 -8 0 6 9 2 20 -10 25 -26 35
-28 26 -5 -6 16 -5 15 12 -1 11 -9 32 -19 48 -21 16 -2 23 -2 17 1 -24 10 -13
24 11 14 15 -5 27 -5 34 2 7 7 20 7 42 0 18 -7 28 -7 25 -2 -4 6 1 10 10 10 9
0 14 -4 11 -8 -3 -5 1 -9 9 -9 8 0 15 4 15 9 0 5 15 8 33 6 29 -3 32 -1 30 22
-3 23 -2 23 11 8 14 -19 32 -25 21 -9 -3 6 4 15 15 21 16 9 20 8 20 -5 0 -10
-5 -13 -12 -9 -6 4 -8 3 -5 -4 4 -5 16 -8 28 -5 16 4 17 8 7 14 -10 7 -10 9 0
9 19 0 27 -4 24 -13 -1 -4 7 -3 19 3 11 7 23 9 26 6 4 -3 12 -1 20 6 7 6 17 7
21 3 4 -4 2 -10 -4 -12 -23 -8 -49 -32 -42 -39 4 -4 14 -1 22 5 8 7 19 10 25
7 5 -3 12 0 14 6 3 8 6 6 6 -4 1 -21 17 -24 24 -5 4 9 7 9 15 -1 5 -7 16 -10
25 -6 11 4 17 1 17 -7 0 -11 3 -11 10 1 7 11 10 11 10 2 0 -7 5 -10 10 -7 6 3
10 1 10 -6 0 -6 8 -9 18 -7 11 3 23 -2 29 -11 11 -18 49 -25 58 -10 3 5 -2 6
-11 2 -12 -4 -15 -2 -12 8 3 8 11 14 19 14 8 0 17 4 20 9 4 4 10 3 13 -3 4 -6
2 -11 -3 -11 -6 0 -11 -4 -11 -10 0 -5 13 -7 30 -3 27 5 30 3 24 -13 -6 -15
-2 -13 15 6 18 20 24 22 31 10 7 -12 12 -11 31 5 12 11 19 14 15 8 -4 -8 -1
-13 8 -13 9 0 16 -4 16 -10 0 -5 7 -7 15 -4 8 4 15 11 15 16 0 6 -7 8 -15 4
-8 -3 -15 0 -15 5 0 6 9 9 20 6 11 -3 20 0 20 5 0 6 6 5 15 -2 8 -7 15 -9 16
-4 0 5 4 0 9 -11 9 -20 9 -20 9 0 1 17 8 21 41 21 22 1 37 -2 34 -7 -2 -4 8
-2 23 6 25 13 29 13 42 -3 12 -16 13 -15 7 4 -4 15 -2 24 9 27 8 4 12 13 9 22
-3 8 -1 15 6 15 6 0 9 -4 6 -9 -3 -4 3 -16 14 -26 12 -10 20 -13 20 -7 0 7 4
12 10 12 5 0 7 -6 4 -14 -3 -7 2 -16 10 -19 10 -4 13 -1 10 7 -3 8 -1 17 5 21
6 3 11 -1 11 -9 0 -9 5 -16 11 -16 6 0 8 7 5 15 -4 11 0 15 12 13 9 -2 16 3
14 10 -2 14 7 15 28 2 13 -8 13 -10 -1 -10 -18 0 -33 -26 -23 -41 3 -5 10 -7
15 -3 6 3 17 -2 24 -12 9 -12 14 -14 15 -6 0 7 5 10 10 7 6 -4 9 -1 8 6 -2 6
3 14 11 17 8 2 11 0 7 -6 -3 -6 -2 -13 4 -17 5 -3 10 2 10 12 0 15 4 13 25 -9
15 -17 32 -25 45 -23 12 2 20 -2 20 -9 0 -8 10 -11 30 -8 16 2 27 9 24 14 -4
6 3 5 15 -1 19 -10 24 -8 23 9 0 3 8 6 19 6 18 0 18 -2 5 -12 -21 -15 -20 -19
4 -21 14 -1 20 4 20 18 0 12 7 19 20 19 11 0 20 -7 20 -15 0 -8 -5 -15 -11
-15 -5 0 -7 -5 -4 -10 4 -7 14 -2 26 11 10 12 19 17 19 11 0 -6 7 -9 15 -6 9
4 15 0 15 -9 0 -9 5 -19 12 -23 7 -5 9 -1 6 13 -3 12 2 33 12 48 15 22 18 24
24 10 8 -23 8 -25 -8 -25 -21 0 -28 -17 -10 -24 8 -3 12 -2 9 4 -5 9 18 15 28
8 2 -2 11 3 19 10 13 10 15 9 10 -13 -2 -15 0 -25 7 -25 7 0 9 5 5 12 -5 8 0
9 14 6 15 -4 22 -2 22 9 0 12 2 12 16 -1 17 -18 28 -21 19 -6 -3 6 2 10 11 10
16 0 16 1 -2 15 -18 14 -17 15 11 9 17 -4 32 -11 33 -16 6 -13 42 -9 42 5 0 7
9 13 19 13 11 0 19 -3 18 -6 -1 -3 6 -16 16 -30 9 -13 17 -19 17 -12 0 6 6 12
13 12 6 0 25 7 40 15 15 8 25 10 22 5 -4 -6 -1 -10 4 -10 6 0 11 7 11 16 0 11
6 14 20 9 16 -5 19 -3 14 12 -5 14 -4 15 4 4 6 -8 17 -11 25 -8 8 3 23 -1 34
-8 21 -17 37 -19 28 -5 -9 15 11 12 24 -3 7 -9 7 -17 1 -25 -6 -7 -7 -10 -4
-7 4 3 14 -1 23 -8 14 -11 14 -10 2 6 -9 12 -10 17 -2 17 7 0 3 10 -8 22 -16
16 -18 25 -10 35 18 21 32 15 26 -13 -3 -17 -1 -22 5 -16 6 6 17 8 24 5 8 -3
14 -1 14 5 0 6 11 9 24 8 17 -2 23 1 19 10 -3 8 0 14 6 14 6 0 11 -4 11 -10 0
-5 5 -10 11 -10 6 0 9 6 6 14 -3 8 1 20 9 26 10 9 14 9 14 1 0 -6 10 -11 23
-11 22 1 22 1 2 17 -20 17 -20 17 3 40 24 24 64 24 59 1 -1 -6 4 -13 12 -16 8
-3 11 0 7 7 -4 6 -1 11 6 11 8 1 4 8 -9 19 -12 10 -19 21 -16 25 4 3 1 6 -5 6
-7 0 -12 4 -12 8 0 5 7 9 15 9 8 0 12 -4 10 -8 -3 -3 2 -12 10 -19 13 -11 15
-8 15 14 0 15 -5 36 -10 46 -7 13 -7 21 0 25 5 3 10 -3 10 -14 0 -24 15 -28
24 -6 3 8 1 15 -4 15 -6 0 -10 5 -10 10 0 6 7 10 15 10 12 0 13 4 6 18 -7 13
-5 26 8 45 10 15 20 25 22 23 3 -3 5 3 5 14 0 10 -3 17 -7 14 -12 -7 -19 27
-9 46 12 23 13 33 1 26 -5 -3 -11 1 -14 9 -4 9 -1 12 7 9 8 -3 16 4 19 17 8
29 -1 39 -14 16 -6 -9 -15 -17 -22 -17 -7 0 -6 4 3 10 12 8 13 12 2 19 -11 6
-7 14 15 31 15 13 21 21 12 17 -11 -4 -20 3 -28 19 -14 31 -14 34 -1 34 6 0
10 -6 10 -13 0 -8 7 -14 15 -14 8 0 12 4 9 9 -3 4 0 8 7 8 8 0 9 4 1 13 -9 10
-8 19 2 33 12 17 11 19 -9 19 -14 0 -20 -4 -16 -10 10 -13 10 -48 0 -38 -18
19 -7 93 13 93 7 0 6 5 -1 13 -6 8 -8 17 -4 21 4 4 0 4 -10 0 -9 -3 -17 -2
-17 4 0 6 6 13 13 15 7 3 5 6 -5 6 -10 1 -18 6 -18 11 0 6 3 9 8 9 19 -3 30 2
37 19 5 14 4 15 -6 5 -18 -18 -30 -16 -23 2 5 11 2 13 -10 9 -12 -5 -15 -2 -9
12 5 14 3 16 -11 11 -12 -5 -15 -3 -9 6 4 6 8 32 9 57 1 48 12 83 23 76 4 -3
7 4 7 15 0 11 -6 17 -12 15 -7 -3 -22 6 -35 20 -12 13 -17 24 -11 24 7 0 12
-5 12 -11 0 -6 6 -9 14 -6 7 3 19 0 25 -6 9 -9 11 -8 5 6 -3 10 -13 16 -20 13
-8 -3 -14 -1 -14 4 0 5 -10 19 -22 30 -18 16 -19 20 -5 14 10 -3 17 -3 16 2
-1 5 1 17 5 27 11 23 0 48 -23 54 -15 4 -18 12 -14 41 6 42 22 79 23 51 0 -9
7 -16 15 -16 18 0 19 9 3 25 -10 10 -10 15 2 22 20 13 3 13 -21 0 -17 -9 -19
-7 -19 16 0 18 4 25 14 21 9 -4 12 2 10 19 -2 17 3 24 16 24 10 0 20 7 24 15
5 13 2 14 -15 4 -23 -12 -41 -3 -20 10 9 6 10 11 2 15 -6 4 -11 4 -11 0 0 -3
-7 -1 -15 6 -8 7 -15 18 -15 24 0 6 4 5 9 -3 5 -7 13 -11 18 -8 12 7 10 43 -2
54 -4 5 -5 2 -1 -4 4 -7 2 -13 -3 -13 -6 0 -11 7 -11 15 0 8 5 15 11 15 6 0 3
7 -5 16 -18 17 -42 9 -28 -9 13 -17 11 -44 -4 -44 -7 0 -12 13 -11 34 1 18 4
33 8 33 4 0 11 9 14 20 3 11 13 20 21 20 8 0 14 4 14 10 0 5 -6 7 -14 4 -7 -3
-16 2 -19 10 -4 10 -13 13 -24 10 -17 -5 -17 -5 0 6 13 8 22 9 31 1 22 -19 25
0 5 35 -13 23 -15 34 -6 34 6 1 1 10 -12 21 -13 11 -21 22 -17 26 3 4 -3 16
-14 28 l-20 22 25 27 c14 15 25 31 25 37 0 5 5 9 10 9 6 0 10 4 10 8 0 5 -7 9
-15 9 -8 0 -12 -4 -9 -9 3 -4 0 -8 -5 -8 -6 0 -11 -5 -11 -11 0 -6 -6 -17 -14
-24 -12 -12 -15 -12 -20 1 -9 22 -7 26 5 18 6 -3 15 0 20 7 13 20 11 32 -4 26
-9 -3 -12 4 -11 25 1 16 5 32 8 35 3 3 1 14 -4 24 -7 12 -6 20 2 25 7 5 8 3 3
-6 -5 -9 -4 -11 4 -6 14 9 5 26 -15 26 -8 0 -14 7 -14 15 0 8 5 15 12 15 6 0
8 3 4 7 -4 5 -13 1 -19 -7 -16 -19 -37 -24 -37 -7 0 7 -9 19 -19 27 -19 13
-19 36 -1 25 5 -3 12 -1 15 5 4 6 1 9 -7 8 -7 -2 -12 3 -10 10 1 8 -2 11 -7 8
-5 -4 -14 2 -20 11 -8 15 -13 16 -29 6 -17 -10 -24 -9 -42 7 -11 10 -17 21
-12 24 6 3 12 -1 16 -9 5 -15 27 -21 25 -7 -3 19 2 23 16 12 9 -7 19 -10 22
-6 4 4 1 11 -7 16 -11 7 -11 10 -2 11 6 1 17 2 24 3 6 0 13 8 15 16 4 13 3 13
-6 0 -6 -8 -11 -13 -12 -10 0 3 -2 14 -4 26 -4 17 0 20 18 17 14 -3 29 2 36
11 8 9 11 16 7 16 -4 0 1 14 9 31 9 17 14 33 12 36 -3 2 -8 -4 -11 -15 -4 -11
-13 -23 -21 -26 -11 -4 -12 0 -5 18 5 15 5 27 -2 34 -13 13 -2 32 18 32 8 0
19 12 25 26 13 35 6 42 -9 9z m-32 -154 c0 -6 -5 -11 -11 -11 -5 0 -8 4 -4 9
3 5 1 12 -5 16 -5 3 -10 11 -10 16 0 6 7 4 15 -5 8 -8 15 -19 15 -25z m-159
-94 c-10 -9 -11 -8 -5 6 3 10 9 15 12 12 3 -3 0 -11 -7 -18z m-301 -37 c0 -5
-4 -10 -10 -10 -5 0 -10 5 -10 10 0 6 5 10 10 10 6 0 10 -4 10 -10z m415 -28
c-3 -7 -1 -22 5 -32 8 -14 5 -19 -12 -23 -24 -7 -38 0 -23 11 14 10 19 46 6
37 -6 -3 -11 -12 -11 -20 0 -25 -16 -24 -18 1 -1 13 3 24 8 24 6 0 10 9 10 20
0 18 2 19 20 8 11 -7 18 -19 15 -26z m-109 1 c-7 -7 -26 7 -26 19 0 6 6 6 15
-2 9 -7 13 -15 11 -17z m44 17 c0 -5 -4 -10 -10 -10 -5 0 -10 5 -10 10 0 6 5
10 10 10 6 0 10 -4 10 -10z m-353 -22 c0 -7 3 -24 8 -38 7 -22 6 -23 -8 -8
-13 12 -15 31 -8 56 3 7 8 0 8 -10z m229 -6 c1 -7 0 -8 -3 -2 -2 5 -9 8 -13 5
-5 -3 -12 0 -15 6 -5 7 -1 10 10 7 10 -1 20 -9 21 -16z m-209 -14 c-3 -8 -6
-5 -6 6 -1 11 2 17 5 13 3 -3 4 -12 1 -19z m263 12 c0 -5 -4 -10 -10 -10 -5 0
-10 5 -10 10 0 6 5 10 10 10 6 0 10 -4 10 -10z m65 -18 c-8 -8 -25 10 -19 20
4 6 9 5 15 -3 4 -7 6 -15 4 -17z m-235 3 c7 -9 8 -15 2 -15 -5 0 -12 7 -16 15
-3 8 -4 15 -2 15 2 0 9 -7 16 -15z m50 -5 c0 -5 -5 -10 -11 -10 -5 0 -7 5 -4
10 3 6 8 10 11 10 2 0 4 -4 4 -10z m-77 -46 c-7 -20 -10 -18 -22 18 -11 30
-11 31 8 14 11 -10 17 -24 14 -32z m213 34 c4 -7 4 -10 -1 -6 -4 4 -14 3 -22
-4 -11 -8 -12 -7 -7 6 7 19 20 21 30 4z m150 -28 c0 -12 -4 -16 -9 -11 -5 5
-6 14 -3 20 10 15 12 14 12 -9z m-476 -16 c0 -2 -7 -4 -15 -4 -8 0 -15 4 -15
10 0 5 7 7 15 4 8 -4 15 -8 15 -10z m80 6 c0 -5 -2 -10 -4 -10 -3 0 -8 5 -11
10 -3 6 -1 10 4 10 6 0 11 -4 11 -10z m478 -270 c-14 -22 -24 -19 -15 5 4 8
11 15 17 15 6 0 6 -7 -2 -20z m-8 -40 c0 -5 -5 -10 -11 -10 -5 0 -7 5 -4 10 3
6 8 10 11 10 2 0 4 -4 4 -10z m45 -19 c4 -8 -20 -41 -30 -41 -3 0 -10 10 -16
23 -9 18 -9 20 2 10 18 -18 34 -16 19 2 -10 12 -10 15 3 15 9 0 18 -4 22 -9z
m-65 -11 c0 -5 -2 -10 -4 -10 -2 0 -12 -3 -22 -7 -16 -6 -17 -5 -4 10 17 19
30 22 30 7z m-56 -32 c-5 -8 -1 -9 12 -4 14 5 16 4 7 -5 -6 -6 -16 -8 -22 -5
-14 9 -14 26 0 26 5 0 7 -5 3 -12z m102 -30 c19 4 18 -22 -1 -38 -14 -11 -19
-7 -16 13 0 4 -4 7 -10 7 -5 0 -8 4 -5 8 3 5 -4 14 -14 22 -10 8 -17 18 -14
22 3 5 15 -1 26 -14 11 -13 26 -22 34 -20z m-98 -17 c11 -7 11 -9 -1 -14 -9
-3 -21 1 -27 9 -10 11 -10 14 1 14 8 0 20 -4 27 -9z m-45 -35 c4 -10 1 -13 -9
-9 -7 3 -14 9 -14 14 0 14 17 10 23 -5z m77 4 c0 -5 -2 -10 -4 -10 -3 0 -8 5
-11 10 -3 6 -1 10 4 10 6 0 11 -4 11 -10z m35 0 c3 -5 1 -10 -4 -10 -6 0 -11
5 -11 10 0 6 2 10 4 10 3 0 8 -4 11 -10z m8 -55 c-3 -9 -8 -14 -10 -11 -3 3
-2 9 2 15 9 16 15 13 8 -4z m57 -94 c0 -6 5 -11 11 -11 5 0 8 -4 4 -10 -9 -14
-37 1 -31 17 3 8 2 12 -3 9 -10 -7 -23 19 -14 28 7 7 33 -19 33 -33z m-3293
-7 c-3 -3 -12 -4 -19 -1 -8 3 -5 6 6 6 11 1 17 -2 13 -5z m110 -53 c-1 -15 -4
-17 -14 -9 -10 8 -13 7 -13 -2 0 -8 -3 -10 -6 -7 -8 7 14 37 27 37 4 0 7 -9 6
-19z m133 3 c0 -2 -7 -4 -15 -4 -8 0 -15 4 -15 10 0 5 7 7 15 4 8 -4 15 -8 15
-10z m64 -13 c-2 -3 -12 3 -22 13 -16 17 -16 18 5 5 12 -7 20 -15 17 -18z
m-134 -16 c0 -2 -5 -7 -12 -11 -7 -4 -8 -3 -4 4 4 7 1 12 -8 12 -9 0 -16 5
-16 10 0 7 6 7 20 0 11 -6 20 -13 20 -15z m47 -17 c-3 -8 -6 -5 -6 6 -1 11 2
17 5 13 3 -3 4 -12 1 -19z m196 -33 c-7 -21 -12 -19 -10 4 0 11 5 18 9 15 4
-3 5 -11 1 -19z m137 5 c0 -5 -6 -12 -12 -16 -7 -4 -10 -4 -6 1 4 4 3 14 -4
22 -8 11 -7 12 6 7 9 -3 16 -10 16 -14z m-335 0 c-3 -5 -10 -10 -16 -10 -5 0
-9 5 -9 10 0 6 7 10 16 10 8 0 12 -4 9 -10z m58 -4 c6 -16 -1 -26 -17 -26 -6
0 -4 5 4 10 10 6 11 10 3 10 -7 0 -13 5 -13 10 0 15 17 12 23 -4z m117 -18 c0
-12 -10 -9 -26 6 -20 21 -17 28 6 14 11 -7 20 -16 20 -20z m80 27 c0 -2 -10
-9 -22 -15 -22 -11 -22 -10 -4 4 21 17 26 19 26 11z m120 -56 c0 -25 -12 -24
-28 2 -8 12 -9 18 -3 14 6 -3 11 -1 11 5 0 6 5 8 10 5 6 -3 10 -15 10 -26z
m215 1 c3 -5 1 -10 -4 -10 -6 0 -11 5 -11 10 0 6 2 10 4 10 3 0 8 -4 11 -10z
m129 -59 c-5 -6 -34 20 -34 30 0 5 8 1 18 -8 10 -10 17 -20 16 -22z m292 22
c-10 -11 -37 -12 -30 -2 3 5 12 9 21 9 9 0 13 -3 9 -7z m-72 -40 c8 3 18 2 21
-2 2 -5 -5 -11 -17 -14 -21 -6 -38 6 -38 28 0 6 4 4 9 -4 5 -8 16 -11 25 -8z
m196 7 c0 -5 -4 -10 -10 -10 -5 0 -10 5 -10 10 0 6 5 10 10 10 6 0 10 -4 10
-10z m320 0 c0 -5 -5 -10 -11 -10 -5 0 -7 5 -4 10 3 6 8 10 11 10 2 0 4 -4 4
-10z m-441 -16 c-14 -17 -21 -87 -8 -79 4 3 10 -2 13 -11 8 -21 8 -24 -5 -24
-5 0 -7 5 -4 10 3 6 0 11 -7 11 -7 1 -20 2 -28 3 -8 0 -16 10 -18 20 -3 14 0
17 12 13 8 -3 18 -2 21 3 3 5 -4 11 -15 15 -11 3 -20 11 -20 16 0 13 17 11 24
-3 3 -7 4 -4 3 7 -1 11 3 20 10 20 6 0 15 3 19 8 14 14 16 7 3 -9z m38 1 c0
-8 -4 -12 -9 -9 -4 3 -8 9 -8 15 0 5 4 9 8 9 5 0 9 -7 9 -15z m2053 11 c0 -3
-4 -8 -10 -11 -5 -3 -10 -1 -10 4 0 6 5 11 10 11 6 0 10 -2 10 -4z m-2010 -10
c0 -3 -4 -8 -10 -11 -5 -3 -10 -1 -10 4 0 6 5 11 10 11 6 0 10 -2 10 -4z m19
-39 c12 -15 12 -17 -3 -11 -9 3 -16 13 -16 22 0 8 1 13 3 11 1 -2 9 -12 16
-22z m381 13 c0 -5 -5 -10 -11 -10 -5 0 -7 5 -4 10 3 6 8 10 11 10 2 0 4 -4 4
-10z m160 0 c0 -5 -2 -10 -4 -10 -3 0 -8 5 -11 10 -3 6 -1 10 4 10 6 0 11 -4
11 -10z m-619 -17 c13 -16 12 -17 -3 -4 -17 13 -22 21 -14 21 2 0 10 -8 17
-17z m44 7 c-3 -5 -11 -10 -16 -10 -6 0 -7 5 -4 10 3 6 11 10 16 10 6 0 7 -4
4 -10z m412 -35 c0 -8 -4 -15 -8 -15 -11 0 -20 16 -12 24 11 11 20 7 20 -9z
m-112 -35 c3 -5 1 -10 -4 -10 -6 0 -11 5 -11 10 0 6 2 10 4 10 3 0 8 -4 11
-10z m40 -19 c-8 -14 -25 -14 -25 0 0 5 5 7 10 4 6 -3 10 -1 10 6 0 7 3 10 6
6 3 -3 3 -10 -1 -16z m-371 -7 c24 -9 19 -24 -7 -24 -13 0 -28 -5 -35 -12 -18
-18 -14 -1 5 22 20 23 17 22 37 14z m368 -15 c75 -16 161 -56 155 -71 -3 -7
-13 -33 -22 -58 -10 -25 -21 -48 -25 -53 -3 -4 -33 5 -66 20 -119 54 -293 37
-310 -31 -18 -72 18 -98 193 -141 194 -47 262 -107 263 -229 0 -112 -61 -188
-179 -223 -68 -20 -206 -22 -281 -4 -72 17 -180 68 -180 85 0 18 48 126 56
126 3 0 18 -8 32 -19 137 -97 392 -87 392 16 0 61 -40 86 -202 123 -128 30
-194 64 -233 119 -70 100 -16 264 104 313 92 38 205 48 303 27z m1691 -23 c-3
-4 -9 -2 -14 5 -13 22 -11 31 5 17 8 -7 12 -17 9 -22z m-1296 7 c3 -10 57
-138 120 -285 62 -147 113 -273 113 -279 0 -21 15 2 42 66 113 264 213 492
221 503 10 12 148 18 159 6 4 -3 -6 -33 -22 -67 -44 -97 -276 -627 -295 -674
l-17 -43 -82 0 -82 0 -53 123 c-30 67 -105 239 -167 383 -63 144 -114 266
-114 273 0 7 28 11 85 11 72 0 87 -3 92 -17z m-1692 -302 c-14 -14 -17 -14
-25 -1 -11 17 6 31 27 23 12 -5 12 -8 -2 -22z m-81 -47 c4 -10 1 -14 -6 -12
-15 5 -23 28 -10 28 5 0 13 -7 16 -16z m546 4 c0 -4 -7 -8 -15 -8 -8 0 -15 4
-15 8 0 5 7 9 15 9 8 0 15 -4 15 -9z m-57 -50 c-2 -5 1 -8 7 -8 6 0 9 8 6 18
-4 12 -1 19 7 19 10 0 13 -11 11 -36 -1 -19 1 -29 5 -23 10 16 34 -10 36 -38
1 -17 -1 -18 -26 -4 -15 7 -30 23 -34 34 -8 26 -21 26 -21 0 0 -11 6 -20 13
-20 7 0 13 -3 14 -7 0 -5 2 -16 4 -26 3 -14 0 -16 -9 -8 -7 6 -16 8 -19 4 -4
-3 -14 0 -24 8 -11 9 -14 10 -9 2 14 -25 -11 -13 -38 17 l-27 30 26 -4 c13 -3
30 -8 37 -12 7 -4 10 -4 6 1 -4 4 -3 14 3 22 14 16 -2 18 -18 2 -8 -8 -13 -8
-17 0 -4 6 -2 11 4 11 6 0 9 4 5 9 -9 16 15 24 30 11 13 -10 15 -8 16 16 0 25
2 26 8 9 5 -11 7 -23 4 -27z m83 -35 c-8 -9 -37 18 -30 28 3 5 12 2 21 -6 8
-9 13 -19 9 -22z m94 -8 c-7 -8 -18 -15 -24 -14 -6 0 -5 3 3 6 11 5 11 7 0 14
-10 6 -7 9 10 9 20 0 21 -2 11 -15z m-656 -34 c-6 -6 -24 19 -24 34 1 6 7 1
15 -9 8 -11 12 -22 9 -25z m772 14 c1 -9 -8 -18 -22 -21 -13 -3 -21 -10 -18
-15 3 -5 -5 -5 -18 0 -23 8 -38 41 -19 41 6 0 11 -6 11 -14 0 -22 37 -7 44 17
5 22 18 17 22 -8z m-170 -12 c4 4 13 2 20 -4 8 -7 14 -7 19 1 11 18 25 11 24
-12 -1 -18 -2 -19 -6 -5 -2 9 -9 15 -14 12 -5 -4 -5 -14 1 -25 8 -16 8 -18 -5
-14 -8 4 -15 11 -15 18 0 6 -5 3 -11 -7 -5 -9 -8 -21 -5 -25 4 -7 -16 -8 -44
-3 -3 1 2 6 10 11 12 8 12 10 1 10 -11 0 -11 3 -1 15 8 10 9 15 2 15 -6 0 -9
7 -5 16 4 12 7 13 14 3 4 -8 11 -10 15 -6z m2444 7 c0 -5 -5 -10 -11 -10 -5 0
-7 5 -4 10 3 6 8 10 11 10 2 0 4 -4 4 -10z m-2660 -10 c0 -12 49 -34 68 -31 6
1 12 -3 12 -9 0 -6 -4 -8 -10 -5 -5 3 -10 -1 -10 -10 0 -8 -12 -20 -26 -25
-33 -13 -34 -13 -34 5 0 8 5 15 10 15 6 0 10 5 10 11 0 5 -5 7 -12 3 -7 -5 -8
-3 -3 6 5 8 -1 19 -16 31 -20 15 -21 19 -6 19 9 0 17 -5 17 -10z m450 -32 c0
-4 -7 -8 -15 -8 -8 0 -15 4 -15 8 0 5 7 9 15 9 8 0 15 -4 15 -9z m-191 -60 c1
-5 -3 -8 -7 -8 -4 0 -8 12 -9 28 -1 23 -1 24 7 7 5 -11 9 -23 9 -27z m-115 16
c3 -8 2 -12 -4 -9 -6 3 -10 10 -10 16 0 14 7 11 14 -7z m31 7 c3 -5 1 -12 -5
-16 -5 -3 -10 1 -10 9 0 18 6 21 15 7z m2545 -17 c0 -8 -6 -14 -14 -14 -9 0
-12 7 -9 20 6 22 23 18 23 -6z m-2496 -12 c3 -5 -1 -9 -9 -9 -8 0 -15 4 -15 9
0 4 4 8 9 8 6 0 12 -4 15 -8z m2480 -27 c-4 -9 0 -15 9 -15 17 0 12 -36 -6
-47 -6 -4 -8 0 -4 10 3 8 -1 21 -9 28 -11 9 -12 15 -3 25 15 18 20 18 13 -1z
m-2514 -23 c0 -5 -7 -9 -15 -9 -8 0 -12 4 -9 9 3 4 9 8 15 8 5 0 9 -4 9 -8z
m2494 -91 c-2 -3 -12 3 -22 13 -16 17 -16 18 5 5 12 -7 20 -15 17 -18z m-1344
-151 c0 -5 -5 -10 -11 -10 -5 0 -7 5 -4 10 3 6 8 10 11 10 2 0 4 -4 4 -10z
m-43 -17 c-4 -3 -2 -12 4 -20 9 -10 6 -13 -15 -13 -14 0 -26 4 -26 10 0 5 7 7
15 3 9 -3 15 -2 14 3 -2 15 1 24 8 24 3 0 3 -3 0 -7z m43 -23 c0 -5 -4 -10
-10 -10 -5 0 -10 5 -10 10 0 6 5 10 10 10 6 0 10 -4 10 -10z m1060 -21 c0 -14
-17 -10 -23 5 -4 10 -1 13 9 9 7 -3 14 -9 14 -14z m-1220 -4 c-7 -9 -15 -13
-19 -10 -3 3 1 10 9 15 21 14 24 12 10 -5z m813 0 c-3 -9 -8 -14 -10 -11 -3 3
-2 9 2 15 9 16 15 13 8 -4z m192 5 c3 -5 1 -10 -4 -10 -6 0 -11 5 -11 10 0 6
2 10 4 10 3 0 8 -4 11 -10z m285 -11 c0 -5 -4 -8 -9 -5 -5 4 -11 1 -13 -6 -3
-8 -7 -6 -11 5 -5 12 -1 17 13 17 11 0 20 -5 20 -11z m-1042 -24 c-7 -13 -13
-15 -16 -7 -2 6 -10 12 -18 12 -8 0 -14 5 -14 10 0 6 13 9 29 8 26 -2 28 -4
19 -23z m509 3 c-3 -8 -6 -5 -6 6 -1 11 2 17 5 13 3 -3 4 -12 1 -19z m-112 3
c3 -5 2 -12 -3 -15 -5 -3 -9 1 -9 9 0 17 3 19 12 6z m312 3 c-3 -3 -12 -4 -19
-1 -8 3 -5 6 6 6 11 1 17 -2 13 -5z m73 -25 c0 -6 -4 -7 -10 -4 -5 3 -10 1
-10 -6 0 -7 -2 -10 -5 -7 -9 8 6 38 16 32 5 -3 9 -10 9 -15z m-1347 4 c-7 -2
-19 -2 -25 0 -7 3 -2 5 12 5 14 0 19 -2 13 -5z m1017 -3 c0 -5 -2 -10 -4 -10
-3 0 -8 5 -11 10 -3 6 -1 10 4 10 6 0 11 -4 11 -10z m286 -10 c0 -11 -6 -22
-12 -24 -20 -8 -9 35 11 44 1 0 1 -9 1 -20z m-230 -17 c-10 -10 -19 5 -10 18
6 11 8 11 12 0 2 -7 1 -15 -2 -18z"/>
<path d="M2600 5026 c0 -2 7 -6 15 -10 8 -3 15 -1 15 4 0 6 -7 10 -15 10 -8 0
-15 -2 -15 -4z"/>
<path d="M4532 4963 c1 -37 1 -37 5 -6 3 19 11 34 21 36 12 3 10 5 -5 6 -20 1
-23 -3 -21 -36z"/>
<path d="M5063 4993 c63 -3 78 -7 73 -18 -7 -18 10 -29 20 -14 5 8 3 9 -6 4
-9 -5 -11 -4 -6 4 4 6 12 9 17 5 5 -3 7 -9 4 -14 -3 -5 2 -16 12 -25 13 -13
14 -18 3 -25 -7 -4 -9 -13 -6 -19 4 -6 2 -11 -3 -11 -6 0 -11 -9 -11 -20 0
-11 4 -20 10 -20 5 0 7 7 4 15 -4 8 -1 15 5 15 7 0 11 7 9 16 -2 10 3 19 10
21 9 4 12 -25 12 -121 0 -107 -2 -125 -15 -120 -9 4 -15 0 -15 -7 0 -9 -3 -10
-8 -4 -11 16 -30 16 -36 -1 -3 -8 -1 -12 4 -9 6 3 7 -1 4 -10 -6 -14 -39 -15
-280 -15 -151 1 -272 5 -269 9 2 5 -4 11 -16 14 -16 4 -18 11 -13 32 5 19 3
25 -7 23 -10 -2 -14 7 -14 30 0 17 -3 32 -7 32 -5 0 -8 -34 -8 -75 l0 -75 345
0 345 0 0 195 0 195 -117 -2 c-95 -2 -103 -3 -40 -5z"/>
<path d="M5310 4805 l0 -195 345 0 345 0 0 195 0 195 -345 0 -345 0 0 -195z
m200 173 c0 -9 3 -9 12 0 17 17 28 15 28 -4 0 -9 5 -13 13 -9 6 4 4 0 -5 -8
-10 -8 -18 -19 -18 -26 0 -9 -5 -9 -20 -1 -15 8 -20 8 -18 -1 2 -6 -7 -12 -19
-14 -12 -1 -21 1 -21 4 4 16 -27 61 -38 57 -8 -3 -16 -1 -19 4 -4 6 17 10 49
10 37 0 56 -4 56 -12z m240 2 c0 -5 -2 -10 -4 -10 -3 0 -8 5 -11 10 -3 6 -1
10 4 10 6 0 11 -4 11 -10z m-310 -30 c10 -18 8 -19 -14 -10 -13 5 -26 8 -28 7
-2 -1 3 4 11 11 19 15 18 16 31 -8z m160 -4 c0 -7 -11 -23 -25 -36 -21 -19
-25 -21 -25 -7 0 9 6 16 13 15 6 -2 11 5 9 15 -2 9 2 17 8 17 6 0 8 5 4 12 -4
7 -3 8 4 4 7 -4 12 -13 12 -20z m60 4 c0 -5 -8 -10 -17 -10 -15 0 -16 2 -3 10
19 12 20 12 20 0z m-115 -61 c4 -10 11 -19 16 -19 6 0 7 5 3 11 -4 7 -1 10 7
7 8 -3 13 -12 11 -20 -1 -8 5 -15 13 -15 18 0 19 9 3 25 -9 9 -9 15 -1 23 13
13 43 -10 47 -36 3 -18 5 -19 29 -9 17 6 17 7 0 28 -10 11 -11 16 -4 9 11 -9
19 -9 35 -1 19 10 20 10 7 -5 -11 -14 -11 -17 0 -17 10 0 10 -3 1 -12 -19 -19
-15 -23 21 -22 17 0 37 -4 44 -9 7 -5 18 -5 24 -1 7 4 9 3 5 -4 -3 -5 0 -13 6
-16 7 -4 -3 -4 -22 -2 -19 3 -30 2 -23 0 7 -3 10 -11 7 -19 -3 -7 0 -16 6 -20
6 -3 9 -1 8 5 -2 7 5 14 14 15 11 2 15 -2 11 -13 -4 -9 -2 -13 5 -8 6 3 13 -3
17 -14 3 -11 14 -20 23 -20 15 -1 15 -2 -1 -14 -16 -13 -16 -15 -2 -30 21 -20
32 -21 15 -1 -10 12 -10 15 3 15 8 0 17 -7 21 -15 5 -15 -5 -19 -33 -15 -12 1
-12 -1 -3 -13 6 -7 8 -18 4 -23 -4 -4 2 -2 12 6 17 13 19 13 14 0 -4 -13 -43
-15 -262 -17 -142 -1 -255 1 -252 4 3 4 -2 15 -11 25 -16 17 -16 20 0 35 9 10
17 12 17 6 0 -6 -4 -13 -10 -15 -6 -2 -5 -9 1 -18 8 -11 12 -12 16 -2 2 6 8
10 12 8 4 -3 8 1 8 9 0 8 -5 12 -10 8 -5 -3 -4 4 3 16 6 12 15 19 21 16 5 -4
6 -11 3 -17 -4 -6 -3 -8 3 -5 5 3 8 20 5 36 -2 17 -7 29 -11 27 -4 -3 -13 -1
-21 5 -11 6 -6 9 17 9 17 0 35 5 38 10 4 6 11 8 16 5 5 -4 9 -1 9 5 0 7 -8 9
-19 5 -11 -3 -22 -1 -26 5 -3 6 -11 7 -17 4 -7 -4 -8 -2 -4 5 5 8 12 9 20 2
15 -12 41 3 32 18 -4 6 -2 11 5 11 8 0 8 4 -1 15 -9 10 -9 15 -1 15 6 0 12 -4
12 -10 4 -30 20 -60 32 -60 5 0 2 10 -9 22 -18 20 -18 21 -1 15 15 -6 17 -3
12 14 -5 15 -4 19 4 15 6 -4 11 -1 11 7 0 7 -7 14 -15 14 -8 0 -12 -4 -9 -8 2
-4 1 -10 -4 -13 -4 -2 -14 4 -21 16 -7 11 -8 17 -2 14 5 -4 12 -3 15 2 10 16
45 10 51 -9z m206 -22 c-6 -8 -9 -17 -6 -21 3 -3 0 -2 -6 3 -12 10 -4 31 13
31 7 0 7 -4 -1 -13z m112 -108 c-4 -15 -8 -17 -14 -8 -6 11 4 28 18 29 0 0 -1
-9 -4 -21z m-503 -49 c0 -5 -4 -10 -10 -10 -5 0 -10 5 -10 10 0 6 5 10 10 10
6 0 10 -4 10 -10z"/>
<path d="M5475 4960 c3 -5 8 -10 11 -10 2 0 4 5 4 10 0 6 -5 10 -11 10 -5 0
-7 -4 -4 -10z"/>
<path d="M5620 4841 c0 -7 -4 -10 -8 -7 -5 3 -9 -2 -9 -10 0 -13 2 -13 16 0 8
9 12 19 8 22 -4 4 -7 2 -7 -5z"/>
<path d="M5675 4840 c-3 -5 -1 -10 4 -10 6 0 11 5 11 10 0 6 -2 10 -4 10 -3 0
-8 -4 -11 -10z"/>
<path d="M5440 4756 c0 -2 7 -9 15 -16 9 -7 15 -8 15 -2 0 5 -7 12 -15 16 -8
3 -15 4 -15 2z"/>
<path d="M5616 4653 c-4 -9 -4 -14 0 -10 4 4 14 1 23 -6 14 -11 15 -10 1 8 -8
11 -15 21 -16 23 -1 2 -5 -5 -8 -15z"/>
<path d="M6770 4972 c0 -5 7 -9 15 -9 8 0 15 4 15 9 0 4 -7 8 -15 8 -8 0 -15
-4 -15 -8z"/>
<path d="M4433 4880 c0 -25 2 -35 4 -22 2 12 2 32 0 45 -2 12 -4 2 -4 -23z"/>
<path d="M5096 4853 c-6 -14 -5 -15 5 -6 7 7 10 15 7 18 -3 3 -9 -2 -12 -12z"/>
<path d="M5175 4820 c-3 -5 -1 -10 4 -10 6 0 11 5 11 10 0 6 -2 10 -4 10 -3 0
-8 -4 -11 -10z"/>
<path d="M4432 4800 c0 -14 2 -19 5 -12 2 6 2 18 0 25 -3 6 -5 1 -5 -13z"/>
<path d="M2212 4798 c-7 -7 -12 -16 -12 -21 0 -5 7 -1 16 8 9 9 14 18 12 20
-2 3 -10 -1 -16 -7z"/>
<path d="M1956 4775 c-3 -8 -1 -15 4 -15 6 0 10 7 10 15 0 8 -2 15 -4 15 -2 0
-6 -7 -10 -15z"/>
<path d="M1810 4770 c0 -5 7 -7 15 -4 8 4 15 8 15 10 0 2 -7 4 -15 4 -8 0 -15
-4 -15 -10z"/>
<path d="M2145 4770 c-3 -6 1 -7 9 -4 18 7 21 14 7 14 -6 0 -13 -4 -16 -10z"/>
<path d="M2180 4740 c0 -5 7 -7 15 -4 8 4 15 8 15 10 0 2 -7 4 -15 4 -8 0 -15
-4 -15 -10z"/>
<path d="M2445 4740 c-3 -5 -1 -10 4 -10 6 0 11 5 11 10 0 6 -2 10 -4 10 -3 0
-8 -4 -11 -10z"/>
<path d="M2396 4728 c3 -4 11 -5 19 -1 21 7 19 12 -4 10 -11 0 -18 -5 -15 -9z"/>
<path d="M1699 4713 c6 -13 8 -23 3 -23 -4 0 -8 -9 -8 -20 0 -11 4 -20 8 -20
4 0 8 5 8 11 0 15 51 2 65 -15 8 -11 13 -11 24 1 7 8 20 12 28 9 8 -3 11 -1 8
4 -3 6 0 10 8 10 14 0 47 31 47 44 0 12 -63 2 -67 -11 -3 -9 4 -10 26 -3 43
12 39 4 -11 -20 -42 -20 -68 -15 -68 15 0 6 -10 11 -22 10 -13 -1 -32 5 -42
14 -18 15 -18 15 -7 -6z"/>
<path d="M4430 4670 l0 -49 -142 -4 -143 -3 148 -2 147 -2 0 55 c0 30 -2 55
-5 55 -3 0 -5 -22 -5 -50z"/>
<path d="M1780 4696 c0 -15 27 -29 34 -18 6 10 -6 26 -21 30 -7 1 -13 -4 -13
-12z"/>
<path d="M6770 4695 c-11 -13 -10 -14 4 -9 9 3 16 10 16 15 0 13 -6 11 -20 -6z"/>
<path d="M2231 4684 c0 -11 3 -14 6 -6 3 7 2 16 -1 19 -3 4 -6 -2 -5 -13z"/>
<path d="M4570 4660 c0 -5 5 -10 10 -10 6 0 10 5 10 10 0 6 -4 10 -10 10 -5 0
-10 -4 -10 -10z"/>
<path d="M4617 4655 c-4 -8 -3 -16 1 -19 4 -3 9 4 9 15 2 23 -3 25 -10 4z"/>
<path d="M1720 4629 c0 -5 5 -7 10 -4 6 3 10 8 10 11 0 2 -4 4 -10 4 -5 0 -10
-5 -10 -11z"/>
<path d="M4048 4613 c7 -3 16 -2 19 1 4 3 -2 6 -13 5 -11 0 -14 -3 -6 -6z"/>
<path d="M6852 4573 c-11 -21 -5 -43 10 -43 6 0 6 6 -2 15 -7 8 -8 15 -3 15 5
0 10 7 10 15 0 20 -4 19 -15 -2z"/>
<path d="M4010 4513 c41 -2 77 -7 80 -11 10 -13 44 -37 38 -27 -10 17 7 36 26
29 11 -4 15 -13 11 -25 -5 -13 -1 -17 15 -16 11 1 20 8 20 15 0 12 -3 12 -17
1 -15 -11 -15 -10 1 9 18 20 20 21 32 4 10 -14 10 -20 -2 -33 -17 -19 -18 -59
-1 -59 8 0 7 -4 -3 -10 -9 -6 -115 -10 -248 -10 -184 0 -232 3 -226 13 6 10 4
10 -7 0 -7 -7 -28 -13 -46 -13 -21 0 -31 4 -29 13 1 6 1 9 -1 4 -3 -4 -10 -4
-15 -1 -7 4 -8 2 -4 -4 4 -7 -11 -12 -46 -15 -29 -2 113 -4 315 -5 231 -1 376
-6 388 -12 24 -13 26 -65 3 -74 -9 -3 -181 -7 -382 -8 -202 -1 -340 -3 -308
-5 40 -3 64 -10 74 -21 7 -9 11 -12 8 -5 -7 13 12 29 21 19 4 -3 -3 -19 -15
-36 -15 -20 -18 -31 -10 -36 6 -4 8 -3 4 4 -11 19 8 19 27 0 14 -15 14 -18 2
-18 -9 0 -12 -6 -8 -16 3 -9 9 -11 12 -6 4 6 11 4 19 -4 11 -13 9 -14 -14 -10
-15 3 -32 11 -37 18 -6 9 -7 8 -3 -4 5 -16 -6 -18 -107 -21 -62 -1 107 -4 376
-5 l487 -2 0 195 0 195 -252 -2 c-139 -1 -219 -4 -178 -5z m280 -15 c0 -4 -5
-8 -11 -8 -5 0 -7 -5 -3 -12 5 -7 3 -8 -6 -3 -10 6 -12 4 -6 -11 6 -15 5 -16
-5 -7 -9 9 -9 16 -1 26 7 8 10 16 7 19 -3 2 2 5 10 5 8 0 15 -4 15 -9z m57 6
c-3 -3 -12 -4 -19 -1 -8 3 -5 6 6 6 11 1 17 -2 13 -5z m-120 -61 c-4 -3 -2
-12 4 -20 7 -8 8 -13 1 -13 -12 0 -23 26 -15 34 4 3 9 6 11 6 3 0 2 -3 -1 -7z
m-477 -183 c0 -5 -2 -10 -4 -10 -3 0 -8 5 -11 10 -3 6 -1 10 4 10 6 0 11 -4
11 -10z m35 -19 c-6 -5 -25 10 -25 20 0 5 6 4 14 -3 8 -7 12 -15 11 -17z m208
16 c3 -8 -1 -14 -8 -14 -7 0 -11 6 -8 14 3 7 6 13 8 13 2 0 5 -6 8 -13z m48
-4 c13 -16 12 -17 -3 -4 -17 13 -22 21 -14 21 2 0 10 -8 17 -17z m49 9 c0 -5
-7 -9 -15 -9 -8 0 -15 4 -15 9 0 4 7 8 15 8 8 0 15 -4 15 -8z m140 -8 c0 -8
-19 -13 -24 -6 -3 5 1 9 9 9 8 0 15 -2 15 -3z m-482 -32 c0 -9 3 -28 6 -41 3
-13 3 -21 0 -18 -3 3 -6 9 -5 14 0 4 -10 19 -22 32 -12 13 -16 21 -8 16 11 -6
13 -4 8 8 -4 11 -2 14 8 11 7 -3 14 -13 13 -22z m593 -11 c-14 -25 -14 -42 0
-18 10 17 29 15 29 -4 0 -6 -4 -7 -10 -4 -5 3 -10 2 -10 -4 0 -5 6 -12 13 -15
6 -3 0 -5 -15 -3 -17 3 -25 0 -22 -8 3 -6 -2 -12 -10 -12 -8 0 -13 4 -10 9 7
11 14 48 9 48 -18 0 -33 -14 -28 -27 4 -11 2 -14 -5 -9 -6 3 -15 -2 -21 -11
-6 -10 -11 -13 -11 -7 0 5 5 15 11 21 15 15 -15 48 -33 37 -9 -5 -10 -4 -3 3
15 15 63 25 70 13 3 -5 12 -7 20 -4 8 4 13 10 10 14 -3 5 1 10 7 13 18 6 21
-8 9 -32z m58 -26 c0 -5 -6 -1 -14 9 -8 11 -15 24 -15 30 0 5 7 1 15 -10 8
-10 14 -23 14 -29z m31 15 c0 -11 -2 -20 -4 -20 -2 0 -6 9 -9 20 -3 11 -1 20
4 20 5 0 9 -9 9 -20z m-196 -28 c3 -5 -1 -9 -9 -9 -8 0 -12 4 -9 9 3 4 7 8 9
8 2 0 6 -4 9 -8z"/>
<path d="M4530 4325 l0 -195 345 0 345 0 0 195 0 195 -345 0 -345 0 0 -195z
m187 171 c0 -11 -5 -13 -19 -5 -10 5 -18 12 -18 14 0 3 8 5 18 5 10 0 19 -7
19 -14z m73 2 c0 -8 -14 -11 -26 -5 -3 1 -10 -6 -15 -16 -6 -9 -15 -14 -21
-11 -7 5 -8 2 -3 -6 8 -13 -11 -30 -35 -30 -12 1 -12 3 2 14 14 10 15 15 5 26
-9 10 -9 11 1 6 14 -8 45 12 37 24 -2 4 9 7 25 6 17 -1 30 -4 30 -8z m260 -4
c0 -2 -7 -4 -15 -4 -8 0 -15 4 -15 10 0 5 7 7 15 4 8 -4 15 -8 15 -10z m56 4
c4 -7 3 -8 -4 -4 -7 4 -12 2 -12 -5 0 -7 -3 -10 -6 -6 -6 5 3 27 11 27 2 0 7
-5 11 -12z m-421 -38 c3 -5 1 -10 -4 -10 -6 0 -11 5 -11 10 0 6 2 10 4 10 3 0
8 -4 11 -10z m-28 -52 c2 -17 0 -19 -7 -8 -5 8 -6 18 -4 22 8 12 10 10 11 -14z
m85 10 c-6 -6 -8 -18 -3 -27 9 -19 8 -32 -2 -48 -5 -7 -4 -13 1 -13 6 0 13 7
16 16 4 11 12 14 24 9 29 -12 72 -13 72 -2 0 6 3 7 7 4 3 -4 12 -2 19 4 10 8
12 5 8 -16 -4 -23 -2 -25 14 -16 13 7 23 6 32 -2 9 -9 14 -9 17 -1 7 20 39 4
51 -24 l12 -27 -4 28 -3 28 25 -23 c18 -17 24 -19 19 -6 -3 9 0 19 7 21 9 4
12 -7 10 -41 -2 -26 -1 -41 2 -34 3 6 13 12 21 12 12 0 13 -3 4 -14 -9 -11 -8
-18 4 -30 9 -9 21 -14 26 -10 11 6 39 -13 39 -28 0 -5 -8 -2 -17 8 -12 12 -18
13 -21 4 -2 -6 1 -17 7 -23 6 -6 11 -14 11 -18 0 -4 -75 -8 -167 -8 -114 -1
-163 2 -153 9 13 8 12 10 -2 10 -10 0 -18 -5 -18 -10 0 -9 -50 -8 -141 2 -17
2 -15 21 3 44 6 8 3 11 -9 10 -12 0 -18 6 -18 19 -1 27 -14 47 -29 42 -6 -3
-12 6 -12 20 -2 21 0 22 10 8 10 -14 14 -14 34 6 13 12 21 28 18 36 -3 8 -6
19 -6 24 0 5 -8 9 -17 10 -20 1 -12 4 30 13 15 4 25 11 22 16 -3 6 -4 10 0 10
3 0 9 -9 13 -21 8 -20 9 -20 23 -3 8 11 9 15 2 10 -7 -4 -13 -4 -13 -1 0 10
24 34 35 35 5 0 4 -5 -3 -12z m46 -28 c14 0 15 -2 3 -9 -17 -11 -43 17 -33 34
4 5 8 2 10 -7 2 -10 11 -18 20 -18z m42 -5 c14 -19 14 -19 -2 -6 -10 7 -18 18
-18 24 0 6 1 8 3 6 1 -2 9 -13 17 -24z m190 -27 c0 -6 -6 -5 -15 2 -8 7 -15
14 -15 16 0 2 7 1 15 -2 8 -4 15 -11 15 -16z m-380 -26 c0 -5 -7 -9 -15 -9 -8
0 -15 4 -15 9 0 4 7 8 15 8 8 0 15 -4 15 -8z m-79 -39 c13 -16 12 -17 -3 -4
-17 13 -22 21 -14 21 2 0 10 -8 17 -17z m553 -14 c-3 -5 -15 -9 -27 -8 -12 0
-16 3 -9 6 6 2 10 8 7 13 -3 4 4 6 15 3 11 -3 17 -9 14 -14z"/>
<path d="M4680 4345 c-7 -9 -8 -15 -2 -15 5 0 12 7 16 15 3 8 4 15 2 15 -2 0
-9 -7 -16 -15z"/>
<path d="M4628 4273 c7 -3 16 -2 19 1 4 3 -2 6 -13 5 -11 0 -14 -3 -6 -6z"/>
<path d="M4801 4184 c0 -11 3 -14 6 -6 3 7 2 16 -1 19 -3 4 -6 -2 -5 -13z"/>
<path d="M4697 4175 c-4 -8 -3 -16 1 -19 4 -3 9 4 9 15 2 23 -3 25 -10 4z"/>
<path d="M5310 4325 l0 -195 345 0 345 0 0 195 0 195 -345 0 -345 0 0 -195z
m240 -65 c0 -5 -2 -10 -4 -10 -3 0 -8 5 -11 10 -3 6 -1 10 4 10 6 0 11 -4 11
-10z m43 -4 c6 -15 -1 -26 -15 -26 -4 0 -8 9 -8 20 0 23 15 27 23 6z m157 -26
c0 -5 -5 -10 -11 -10 -5 0 -7 5 -4 10 3 6 8 10 11 10 2 0 4 -4 4 -10z m-250
-10 c0 -5 -5 -10 -11 -10 -5 0 -7 5 -4 10 3 6 8 10 11 10 2 0 4 -4 4 -10z
m-40 -10 c0 -5 -5 -10 -11 -10 -5 0 -7 5 -4 10 3 6 8 10 11 10 2 0 4 -4 4 -10z
m84 -32 c-3 -5 -1 -8 4 -8 5 0 9 -6 9 -14 0 -17 -23 -10 -25 7 0 7 -4 23 -8
37 -6 24 -6 24 9 5 8 -11 13 -23 11 -27z m-44 5 c0 -3 -7 -3 -15 1 -8 3 -15 1
-15 -3 0 -5 5 -11 10 -13 6 -2 0 -9 -12 -17 -21 -13 -22 -13 -9 2 10 13 10 17
1 17 -10 0 -10 3 0 14 10 13 40 12 40 -1z m255 7 c3 -6 -1 -7 -9 -4 -18 7 -21
14 -7 14 6 0 13 -4 16 -10z m-113 -32 c-7 -7 -12 -8 -12 -2 0 14 12 26 19 19
2 -3 -1 -11 -7 -17z"/>
<path d="M4060 4490 c-9 -6 -10 -10 -3 -10 6 0 15 5 18 10 8 12 4 12 -15 0z"/>
<path d="M4135 4460 c-3 -5 -1 -10 4 -10 6 0 11 5 11 10 0 6 -2 10 -4 10 -3 0
-8 -4 -11 -10z"/>
<path d="M4148 4433 c7 -3 16 -2 19 1 4 3 -2 6 -13 5 -11 0 -14 -3 -6 -6z"/>
<path d="M6847 4433 c-10 -10 -8 -23 4 -23 5 0 8 4 5 9 -4 5 0 12 6 14 7 3 8
6 2 6 -6 1 -14 -2 -17 -6z"/>
<path d="M4175 4420 c-3 -5 -1 -10 4 -10 6 0 11 5 11 10 0 6 -2 10 -4 10 -3 0
-8 -4 -11 -10z"/>
<path d="M6868 4393 c7 -3 16 -2 19 1 4 3 -2 6 -13 5 -11 0 -14 -3 -6 -6z"/>
<path d="M1546 4376 c3 -9 11 -16 16 -16 13 0 5 23 -10 28 -7 2 -10 -2 -6 -12z"/>
<path d="M6890 4371 c0 -6 4 -12 8 -15 5 -3 9 1 9 9 0 8 -4 15 -9 15 -4 0 -8
-4 -8 -9z"/>
<path d="M6933 3975 c0 -8 4 -12 9 -9 5 3 6 10 3 15 -9 13 -12 11 -12 -6z"/>
<path d="M3692 3870 c-10 -17 -10 -20 3 -20 8 0 15 9 15 20 0 11 -1 20 -3 20
-1 0 -8 -9 -15 -20z"/>
<path d="M6895 3840 c-3 -5 -2 -10 4 -10 5 0 13 5 16 10 3 6 2 10 -4 10 -5 0
-13 -4 -16 -10z"/>
<path d="M4230 3820 c0 -5 5 -10 10 -10 6 0 10 5 10 10 0 6 -4 10 -10 10 -5 0
-10 -4 -10 -10z"/>
<path d="M6935 3822 c-10 -10 -5 -19 10 -19 8 0 16 6 19 12 4 11 -19 17 -29 7z"/>
<path d="M4500 3741 c0 -10 19 -25 25 -20 1 2 -3 10 -11 17 -8 7 -14 8 -14 3z"/>
<path d="M4661 3734 c0 -11 3 -14 6 -6 3 7 2 16 -1 19 -3 4 -6 -2 -5 -13z"/>
<path d="M6929 3748 c-6 -25 -6 -38 1 -38 12 0 20 29 10 35 -6 4 -10 5 -11 3z"/>
<path d="M4712 3705 c-17 -14 -36 -25 -42 -25 -9 0 -7 -7 5 -20 22 -24 35 -26
35 -4 0 11 -5 14 -17 10 -10 -4 0 9 21 29 45 40 43 48 -2 10z"/>
<path d="M4515 3690 c3 -5 8 -10 11 -10 2 0 4 5 4 10 0 6 -5 10 -11 10 -5 0
-7 -4 -4 -10z"/>
<path d="M4620 3659 c0 -5 5 -7 10 -4 6 3 10 8 10 11 0 2 -4 4 -10 4 -5 0 -10
-5 -10 -11z"/>
<path d="M4727 3620 c3 -11 9 -17 15 -14 5 3 4 12 -3 20 -16 19 -18 18 -12 -6z"/>
<path d="M6951 3563 c-1 -13 -2 -26 -3 -30 -1 -5 6 -9 15 -11 11 -2 15 1 11
11 -3 8 2 22 11 31 9 9 11 16 5 16 -6 0 -14 -8 -17 -17 -6 -15 -7 -15 -14 3
-7 17 -8 17 -8 -3z"/>
<path d="M6965 3470 c-3 -5 -2 -10 4 -10 5 0 13 5 16 10 3 6 2 10 -4 10 -5 0
-13 -4 -16 -10z"/>
<path d="M3910 3435 c-7 -9 -10 -18 -7 -21 3 -3 10 4 17 15 13 25 8 27 -10 6z"/>
<path d="M3700 3261 c0 -6 4 -13 10 -16 6 -3 7 1 4 9 -7 18 -14 21 -14 7z"/>
<path d="M3745 3230 c-3 -6 1 -7 9 -4 18 7 21 14 7 14 -6 0 -13 -4 -16 -10z"/>
<path d="M3795 3219 c4 -6 -1 -17 -11 -25 -18 -14 -18 -14 3 -4 30 14 36 27
17 34 -9 3 -12 2 -9 -5z"/>
<path d="M3835 3210 c-3 -5 1 -10 10 -10 9 0 13 5 10 10 -3 6 -8 10 -10 10 -2
0 -7 -4 -10 -10z"/>
<path d="M3727 3143 c7 -17 20 -17 26 1 4 10 0 14 -12 13 -11 -1 -17 -7 -14
-14z"/>
<path d="M3744 3078 l-19 -23 23 19 c12 11 22 21 22 23 0 8 -8 2 -26 -19z"/>
<path d="M3940 2840 c0 -6 7 -10 15 -10 8 0 15 2 15 4 0 2 -7 6 -15 10 -8 3
-15 1 -15 -4z"/>
<path d="M6970 2845 c0 -5 5 -17 10 -25 5 -8 10 -10 10 -5 0 6 -5 17 -10 25
-5 8 -10 11 -10 5z"/>
<path d="M6857 2743 c-14 -13 -7 -42 8 -37 11 5 13 10 5 19 -8 9 -7 14 2 18 7
3 8 6 2 6 -6 1 -14 -2 -17 -6z"/>
<path d="M6863 2673 c-15 -5 -17 -23 -4 -23 5 0 11 7 15 15 3 8 4 15 3 14 -1
0 -8 -3 -14 -6z"/>
<path d="M5580 2621 c0 -6 4 -13 10 -16 6 -3 7 1 4 9 -7 18 -14 21 -14 7z"/>
<path d="M6555 2620 c-4 -6 -3 -10 1 -10 4 0 -1 -9 -10 -19 -11 -12 -14 -21
-7 -26 6 -3 11 1 11 9 0 18 11 21 26 6 5 -5 15 -6 22 -1 9 5 6 13 -13 29 -13
12 -27 17 -30 12z"/>
<path d="M6506 2594 c-11 -7 -18 -16 -15 -18 2 -2 13 2 23 10 11 7 18 16 15
18 -2 2 -13 -2 -23 -10z"/>
<path d="M6343 2593 c-15 -5 -17 -23 -4 -23 5 0 11 7 15 15 3 8 4 15 3 14 -1
0 -8 -3 -14 -6z"/>
<path d="M6290 2580 c0 -5 7 -10 16 -10 8 0 12 5 9 10 -3 6 -10 10 -16 10 -5
0 -9 -4 -9 -10z"/>
<path d="M113 10213 c-7 -2 -13 -14 -13 -24 0 -11 5 -17 10 -14 6 4 8 11 5 16
-4 5 1 9 9 9 9 0 16 5 16 10 0 11 -7 12 -27 3z"/>
<path d="M862 10204 c10 -10 20 -16 22 -13 3 3 -5 11 -17 18 -21 13 -21 12 -5
-5z"/>
<path d="M1335 10209 c-4 -5 4 -9 17 -9 16 0 19 -3 10 -8 -9 -6 -7 -11 10 -19
20 -9 23 -8 23 12 0 13 -3 21 -7 18 -5 -2 -8 0 -8 4 0 12 -38 14 -45 2z"/>
<path d="M1435 10210 c-3 -5 1 -10 9 -10 9 0 16 5 16 10 0 6 -4 10 -9 10 -6 0
-13 -4 -16 -10z"/>
<path d="M255 10199 c-4 -6 -5 -12 -2 -15 2 -3 7 2 10 11 7 17 1 20 -8 4z"/>
<path d="M390 10196 c0 -8 4 -17 9 -20 5 -4 7 3 4 14 -6 23 -13 26 -13 6z"/>
<path d="M1565 10189 c-11 -17 1 -21 15 -4 8 9 8 15 2 15 -6 0 -14 -5 -17 -11z"/>
<path d="M60 10170 c0 -5 -9 -10 -20 -10 -13 0 -20 -7 -20 -19 0 -23 20 -22
44 1 18 19 21 38 6 38 -5 0 -10 -4 -10 -10z"/>
<path d="M450 10176 c0 -2 8 -10 18 -17 15 -13 16 -12 3 4 -13 16 -21 21 -21
13z"/>
<path d="M1453 10165 c0 -11 4 -12 14 -4 7 6 13 13 13 15 0 2 -6 4 -13 4 -8 0
-14 -7 -14 -15z"/>
<path d="M868 10163 c-10 -2 -18 -9 -18 -14 0 -14 16 -11 30 6 7 8 11 14 9 14
-2 -1 -12 -3 -21 -6z"/>
<path d="M1268 10158 c5 -5 16 -8 23 -6 8 3 3 7 -10 11 -17 4 -21 3 -13 -5z"/>
<path d="M780 10156 c0 -9 30 -14 35 -6 4 6 -3 10 -14 10 -12 0 -21 -2 -21 -4z"/>
<path d="M926 10151 c-3 -5 1 -11 9 -14 9 -4 12 -1 8 9 -6 16 -10 17 -17 5z"/>
<path d="M1015 10150 c-4 -6 3 -10 14 -10 25 0 27 6 6 13 -8 4 -17 2 -20 -3z"/>
<path d="M1500 10148 c1 -22 36 -62 44 -49 11 17 22 13 23 -9 1 -11 -2 -20 -8
-20 -5 0 -8 -3 -8 -7 5 -32 -2 -43 -25 -39 -36 6 -67 26 -61 37 9 14 17 11 9
-3 -4 -7 2 -4 14 6 19 17 22 17 22 3 0 -18 15 -23 24 -9 3 5 -6 15 -19 22 -20
11 -28 10 -48 -3 -17 -11 -29 -12 -43 -5 -16 8 -16 7 2 -9 12 -10 26 -27 32
-38 6 -11 12 -14 12 -7 0 17 16 15 18 -3 1 -8 3 -22 4 -30 1 -11 5 -12 15 -4
7 6 13 8 13 3 0 -4 7 1 16 12 15 18 15 18 5 -2 -6 -12 -7 -25 -3 -29 4 -5 -1
-5 -10 -2 -12 4 -18 1 -18 -8 0 -9 6 -12 17 -8 11 4 14 3 9 -5 -6 -11 5 -17
27 -13 4 0 7 -4 7 -11 0 -18 13 0 17 22 2 11 -2 20 -7 20 -6 0 -10 8 -10 17 0
13 3 14 12 5 15 -15 28 -16 28 -2 0 6 -6 9 -12 8 -8 -2 -13 8 -13 24 1 14 -3
24 -7 22 -10 -6 -6 26 5 44 5 7 3 12 -4 12 -8 0 -7 5 4 13 16 12 19 40 4 45
-4 1 -17 2 -28 2 -16 0 -20 -5 -16 -20 3 -11 1 -23 -4 -26 -5 -3 -10 1 -10 8
-1 7 -2 19 -3 27 -1 18 -26 27 -26 9z m81 -25 c12 -16 12 -17 -2 -6 -9 7 -20
9 -24 5 -5 -4 -5 -1 -1 6 9 16 11 15 27 -5z m-66 -113 c3 -6 -1 -7 -9 -4 -18
7 -21 14 -7 14 6 0 13 -4 16 -10z m48 -73 c-3 -5 -9 -3 -14 4 -4 7 -5 17 -2
22 3 5 9 3 14 -4 4 -7 5 -17 2 -22z"/>
<path d="M970 10140 c-12 -7 -10 -9 8 -7 12 0 22 5 22 9 0 11 -12 10 -30 -2z"/>
<path d="M1411 10136 c-7 -8 -19 -12 -27 -9 -8 3 -14 1 -14 -5 0 -13 24 -10
43 6 12 10 16 10 20 0 2 -7 7 -10 11 -7 4 3 0 11 -7 18 -11 9 -17 8 -26 -3z"/>
<path d="M710 10124 c0 -8 5 -12 10 -9 6 4 8 11 5 16 -9 14 -15 11 -15 -7z"/>
<path d="M757 10120 c-3 -11 -2 -20 3 -20 4 0 10 9 13 20 3 11 2 20 -3 20 -4
0 -10 -9 -13 -20z"/>
<path d="M1330 10123 c0 -13 5 -23 10 -23 13 0 13 11 0 30 -8 12 -10 11 -10
-7z"/>
<path d="M1015 10120 c6 -10 1 -12 -19 -8 -14 3 -29 2 -31 -2 -3 -4 8 -10 25
-12 30 -5 49 15 28 28 -7 5 -8 2 -3 -6z"/>
<path d="M1085 10120 c3 -5 14 -10 23 -10 15 0 15 2 2 10 -20 13 -33 13 -25 0z"/>
<path d="M1460 10115 c0 -9 6 -12 15 -9 8 4 15 7 15 9 0 2 -7 5 -15 9 -9 3
-15 0 -15 -9z"/>
<path d="M917 10102 c3 -7 9 -10 12 -5 3 4 10 11 15 15 4 4 -1 6 -12 5 -12 -1
-18 -6 -15 -15z"/>
<path d="M1052 10115 c4 -4 1 -14 -7 -22 -18 -17 -20 -43 -3 -43 6 0 8 3 5 7
-4 3 0 17 8 29 11 18 12 25 2 30 -6 4 -9 4 -5 -1z"/>
<path d="M572 10096 c7 -8 15 -12 17 -11 5 6 -10 25 -20 25 -5 0 -4 -6 3 -14z"/>
<path d="M865 10100 c-6 -10 1 -14 19 -11 5 1 5 -6 2 -16 -5 -13 -4 -15 4 -7
11 11 4 44 -10 44 -5 0 -12 -4 -15 -10z"/>
<path d="M1125 10090 c-13 -6 -15 -9 -5 -9 8 0 22 4 30 9 18 12 2 12 -25 0z"/>
<path d="M626 10073 c-6 -14 -5 -15 5 -6 7 7 10 15 7 18 -3 3 -9 -2 -12 -12z"/>
<path d="M935 10080 c-7 -11 22 -26 32 -16 4 3 -1 6 -11 6 -9 0 -14 5 -11 10
3 6 4 10 1 10 -3 0 -8 -5 -11 -10z"/>
<path d="M1160 10070 c-16 -23 -38 -33 -52 -24 -6 4 -5 10 3 15 8 5 9 9 3 9
-6 0 -17 -7 -24 -15 -7 -8 -17 -12 -22 -9 -6 4 -4 -4 3 -17 l14 -24 3 24 c3
18 6 21 12 11 6 -10 14 -11 31 -3 19 8 27 6 41 -11 9 -12 17 -16 18 -9 0 6 -4
15 -10 18 -16 10 -11 36 6 33 10 -2 19 3 21 10 7 20 -31 14 -47 -8z"/>
<path d="M150 10060 c-6 -11 -7 -20 -2 -20 6 0 12 9 15 20 3 11 3 20 1 20 -2
0 -8 -9 -14 -20z"/>
<path d="M784 10069 c-3 -5 6 -9 20 -9 32 0 41 15 10 16 -13 1 -27 -2 -30 -7z"/>
<path d="M1020 10025 c0 -8 2 -15 4 -15 2 0 6 7 10 15 3 8 1 15 -4 15 -6 0
-10 -7 -10 -15z"/>
<path d="M485 10020 c3 -5 11 -10 16 -10 6 0 7 5 4 10 -3 6 -11 10 -16 10 -6
0 -7 -4 -4 -10z"/>
<path d="M1135 10011 c-3 -5 -2 -12 3 -15 5 -3 9 1 9 9 0 17 -3 19 -12 6z"/>
<path d="M384 9978 c3 -16 1 -28 -5 -28 -6 0 -7 -5 -3 -11 5 -8 10 -6 16 5 6
10 7 20 4 23 -3 3 -1 13 4 23 7 12 5 17 -6 17 -12 0 -14 -7 -10 -29z"/>
<path d="M1031 9984 c0 -11 3 -14 6 -6 3 7 2 16 -1 19 -3 4 -6 -2 -5 -13z"/>
<path d="M1192 9984 c10 -10 20 -16 22 -13 3 3 -5 11 -17 18 -21 13 -21 12 -5
-5z"/>
<path d="M1662 9978 c4 -8 1 -21 -5 -27 -6 -6 -8 -11 -3 -11 4 0 13 6 20 13
11 10 10 15 -2 27 -14 13 -15 12 -10 -2z"/>
<path d="M40 9909 c0 -5 5 -7 10 -4 6 3 10 8 10 11 0 2 -4 4 -10 4 -5 0 -10
-5 -10 -11z"/>
<path d="M345 9910 c-4 -6 -10 -8 -15 -5 -13 8 -19 -20 -8 -36 8 -11 9 -10 4
5 -5 14 -2 17 11 12 10 -4 14 -4 10 0 -4 4 -2 13 4 21 6 7 9 13 6 13 -3 0 -9
-5 -12 -10z"/>
<path d="M267 9896 c-4 -10 -7 -25 -6 -34 0 -11 4 -9 10 7 5 13 8 29 6 35 -2
5 -6 2 -10 -8z"/>
<path d="M170 9889 c0 -5 5 -7 10 -4 6 3 10 8 10 11 0 2 -4 4 -10 4 -5 0 -10
-5 -10 -11z"/>
<path d="M1190 9850 c-9 -6 -10 -10 -3 -10 6 0 15 5 18 10 8 12 4 12 -15 0z"/>
<path d="M35 9840 c28 -12 37 -12 30 0 -3 6 -16 10 -28 9 -21 0 -21 -1 -2 -9z"/>
<path d="M1406 9821 c-4 -5 -2 -12 3 -15 5 -4 12 -2 15 3 4 5 2 12 -3 15 -5 4
-12 2 -15 -3z"/>
<path d="M230 9810 c-9 -6 -10 -10 -3 -10 6 0 15 5 18 10 8 12 4 12 -15 0z"/>
<path d="M74 9785 c-4 -15 -11 -22 -18 -18 -6 4 -5 -1 3 -10 7 -9 11 -26 8
-36 -3 -11 2 -29 10 -40 8 -12 11 -21 6 -21 -4 0 -1 -5 7 -10 13 -8 12 -11 -5
-24 -20 -14 -20 -15 0 -13 16 2 20 -4 20 -29 0 -24 -4 -30 -17 -26 -12 3 -23
-8 -37 -37 -31 -60 -27 -89 12 -82 5 1 6 -3 2 -9 -3 -5 -2 -10 3 -10 6 0 13
-7 16 -16 3 -8 2 -12 -3 -9 -5 3 -12 1 -16 -5 -3 -5 -12 -10 -18 -10 -8 0 -7
3 2 9 9 6 11 16 7 27 -5 14 -9 15 -15 5 -6 -9 -10 -6 -15 11 -7 22 -7 22 -16
3 -12 -28 -12 -47 1 -40 6 4 13 -2 16 -14 3 -11 9 -18 14 -15 5 3 9 0 9 -5 0
-6 -4 -11 -9 -11 -15 0 -20 -38 -5 -44 8 -3 14 0 14 7 0 8 4 7 10 -3 7 -11 8
-6 4 18 -7 35 10 46 21 12 10 -31 22 -15 17 21 -4 25 -2 30 9 24 7 -5 3 8 -9
28 -21 36 -21 37 -2 27 14 -7 20 -7 20 0 0 5 -4 10 -10 10 -5 0 -10 7 -10 16
0 8 5 12 11 9 6 -4 9 0 7 11 -2 15 3 19 25 18 15 -1 27 3 27 7 0 5 -9 9 -20 9
-13 0 -18 5 -14 15 4 8 14 15 23 15 13 0 14 2 2 9 -10 7 -19 5 -26 -6 -11 -14
-12 -14 -12 1 0 9 4 16 9 16 5 0 6 5 3 10 -8 13 18 8 27 -5 4 -5 11 2 16 15
11 29 9 35 -10 24 -7 -5 -22 -10 -33 -11 -16 -2 -17 -1 -5 6 8 5 18 7 22 5 4
-3 5 2 1 11 -4 11 -8 13 -13 5 -5 -8 -10 -7 -18 3 -9 11 -8 13 8 12 11 -1 23
-4 26 -8 4 -3 15 -2 25 4 18 9 18 12 3 41 -14 28 -14 30 0 25 8 -3 18 -1 22 5
4 7 3 8 -4 4 -7 -4 -12 -1 -12 9 0 10 -6 15 -17 13 -10 -2 -17 -10 -15 -17 1
-7 -3 -19 -9 -27 -9 -11 -9 -14 0 -14 7 0 9 -5 6 -10 -4 -6 -12 -4 -21 5 -9 8
-20 13 -25 10 -5 -4 -15 0 -22 7 -12 10 -11 16 5 33 19 20 19 20 -1 25 -15 4
-18 9 -11 20 7 11 10 11 10 2 0 -7 5 -10 10 -7 16 10 12 45 -5 45 -8 0 -17
-11 -21 -25z m11 -245 c3 -5 1 -10 -4 -10 -6 0 -11 5 -11 10 0 6 2 10 4 10 3
0 8 -4 11 -10z m30 -10 c3 -5 1 -10 -4 -10 -6 0 -11 5 -11 10 0 6 2 10 4 10 3
0 8 -4 11 -10z m-31 -16 c20 -8 20 -21 2 -39 -12 -12 -15 -12 -19 0 -3 7 -1
16 6 19 9 3 8 8 -3 15 -17 12 -10 14 14 5z"/>
<path d="M186 9801 c-3 -5 1 -11 9 -14 9 -4 12 -1 8 9 -6 16 -10 17 -17 5z"/>
<path d="M1355 9779 c-4 -6 -5 -12 -2 -15 2 -3 7 2 10 11 7 17 1 20 -8 4z"/>
<path d="M210 9760 c-9 -6 -10 -10 -3 -10 6 0 15 5 18 10 8 12 4 12 -15 0z"/>
<path d="M225 9730 c3 -5 8 -10 11 -10 2 0 4 5 4 10 0 6 -5 10 -11 10 -5 0 -7
-4 -4 -10z"/>
<path d="M1352 9725 c15 -16 20 -17 30 -6 11 11 10 13 0 7 -7 -4 -21 -2 -30 5
-15 12 -15 11 0 -6z"/>
<path d="M1316 9688 c3 -5 10 -6 15 -3 13 9 11 12 -6 12 -8 0 -12 -4 -9 -9z"/>
<path d="M1375 9690 c-3 -5 -2 -10 4 -10 5 0 13 5 16 10 3 6 2 10 -4 10 -5 0
-13 -4 -16 -10z"/>
<path d="M1 9594 c-1 -65 1 -94 9 -89 5 3 8 18 5 33 -5 25 -5 25 4 5 14 -31
19 -29 14 5 -3 23 -2 24 6 7 9 -20 10 -20 10 1 1 24 -25 40 -33 21 -2 -7 -5 2
-5 19 -1 28 2 31 25 28 14 -1 23 0 20 3 -3 4 -1 12 5 19 11 14 5 34 -11 34 -5
0 -12 -9 -15 -20 -8 -25 -25 -26 -18 -1 3 10 0 21 -5 25 -6 3 -10 -32 -11 -90z"/>
<path d="M1265 9680 c3 -5 8 -10 11 -10 2 0 4 5 4 10 0 6 -5 10 -11 10 -5 0
-7 -4 -4 -10z"/>
<path d="M1501 9644 c0 -11 3 -14 6 -6 3 7 2 16 -1 19 -3 4 -6 -2 -5 -13z"/>
<path d="M1365 9640 c-16 -7 -17 -9 -3 -9 9 -1 20 4 23 9 7 11 7 11 -20 0z"/>
<path d="M1360 9609 c0 -5 5 -7 10 -4 6 3 10 8 10 11 0 2 -4 4 -10 4 -5 0 -10
-5 -10 -11z"/>
<path d="M1420 9580 c-9 -6 -10 -10 -3 -10 6 0 15 5 18 10 8 12 4 12 -15 0z"/>
<path d="M1340 9569 c0 -5 5 -7 10 -4 6 3 10 8 10 11 0 2 -4 4 -10 4 -5 0 -10
-5 -10 -11z"/>
<path d="M480 9543 c0 -7 4 -13 9 -13 5 0 11 6 14 13 3 8 -1 14 -9 14 -8 0
-14 -6 -14 -14z"/>
<path d="M1375 9550 c-3 -5 1 -10 10 -10 9 0 13 5 10 10 -3 6 -8 10 -10 10 -2
0 -7 -4 -10 -10z"/>
<path d="M1525 9520 c3 -5 8 -10 11 -10 2 0 4 5 4 10 0 6 -5 10 -11 10 -5 0
-7 -4 -4 -10z"/>
<path d="M1380 9495 c0 -8 4 -15 10 -15 5 0 7 7 4 15 -4 8 -8 15 -10 15 -2 0
-4 -7 -4 -15z"/>
<path d="M1420 9445 c4 -25 5 -45 2 -45 -2 0 1 -7 8 -15 6 -8 8 -19 4 -26 -7
-12 -10 -32 -13 -78 -1 -18 -5 -22 -20 -18 -20 5 -60 -27 -48 -39 3 -3 2 -17
-4 -31 -6 -17 -6 -22 2 -18 6 4 16 -1 24 -11 14 -20 15 -8 2 29 -15 37 -16 47
-8 47 5 0 12 -7 15 -16 5 -13 9 -14 21 -4 8 7 15 9 15 5 0 -4 12 5 26 21 27
28 27 28 5 38 -23 10 -30 29 -7 20 11 -4 14 8 13 61 -1 37 -4 58 -8 48 -7 -17
-8 -16 -9 2 -1 11 -3 25 -5 30 -1 6 -3 18 -3 28 -1 9 -6 17 -10 17 -5 0 -6
-20 -2 -45z"/>
<path d="M1585 9430 c-3 -5 -1 -10 4 -10 6 0 11 5 11 10 0 6 -2 10 -4 10 -3 0
-8 -4 -11 -10z"/>
<path d="M1492 9388 c-17 -17 -15 -53 4 -69 13 -11 17 -10 25 3 6 11 20 15 42
13 23 -2 34 1 34 10 0 8 -9 11 -25 9 -13 -3 -31 1 -40 8 -12 10 -14 10 -8 1 5
-9 0 -13 -13 -13 -23 0 -28 19 -9 38 7 7 10 12 7 12 -3 0 -10 -5 -17 -12z"/>
<path d="M26 9287 c3 -10 9 -15 12 -12 3 3 0 11 -7 18 -10 9 -11 8 -5 -6z"/>
<path d="M79 9293 c0 -5 -2 -18 -5 -31 -3 -19 -2 -21 10 -10 8 7 12 15 10 17
-2 2 1 10 7 18 9 10 8 13 -5 13 -9 0 -16 -3 -17 -7z"/>
<path d="M1380 9296 c0 -2 8 -10 18 -17 15 -13 16 -12 3 4 -13 16 -21 21 -21
13z"/>
<path d="M1492 9288 c-14 -14 -16 -28 -2 -28 5 0 14 9 20 20 12 22 1 27 -18 8z"/>
<path d="M216 9277 c3 -10 9 -15 12 -12 3 3 0 11 -7 18 -10 9 -11 8 -5 -6z"/>
<path d="M51 9273 c-1 -7 -8 -13 -16 -13 -8 0 -15 -4 -15 -10 0 -5 4 -10 8
-10 5 0 7 -13 4 -30 -2 -16 -9 -30 -15 -30 -7 0 -7 -4 1 -12 7 -7 12 -19 12
-29 0 -18 25 -20 51 -4 9 6 23 25 32 43 8 18 12 30 7 27 -5 -3 -11 3 -15 14
-3 10 -13 18 -22 17 -10 0 -20 9 -24 24 -4 14 -7 19 -8 13z m23 -135 c-3 -4
-12 -4 -20 -1 -13 5 -13 7 -2 14 10 7 11 9 0 9 -7 0 -10 5 -7 11 5 6 12 4 20
-8 7 -10 11 -21 9 -25z"/>
<path d="M1580 9250 c0 -5 5 -10 11 -10 5 0 7 5 4 10 -3 6 -8 10 -11 10 -2 0
-4 -4 -4 -10z"/>
<path d="M220 9230 c-9 -6 -10 -10 -3 -10 6 0 15 5 18 10 8 12 4 12 -15 0z"/>
<path d="M1461 9221 c-8 -5 -9 -11 -3 -15 5 -3 12 1 16 9 6 17 6 18 -13 6z"/>
<path d="M240 9209 c0 -5 5 -7 10 -4 6 3 10 8 10 11 0 2 -4 4 -10 4 -5 0 -10
-5 -10 -11z"/>
<path d="M1400 9180 c0 -19 11 -26 23 -14 8 8 -3 34 -14 34 -5 0 -9 -9 -9 -20z"/>
<path d="M234 9154 c9 -8 14 -20 11 -25 -4 -5 1 -6 9 -3 20 8 20 14 -1 30 -25
19 -38 17 -19 -2z"/>
<path d="M113 9147 c4 -10 -2 -22 -16 -32 -12 -8 -16 -15 -8 -15 8 0 11 -6 7
-16 -3 -8 -2 -12 4 -9 6 3 10 0 10 -9 0 -8 3 -16 8 -19 4 -2 2 -3 -4 -1 -6 1
-17 -2 -25 -7 -8 -5 -9 -9 -3 -9 6 0 9 -12 6 -28 -3 -26 -1 -28 28 -27 25 0
30 4 26 17 -2 10 0 16 4 13 20 -12 13 31 -8 54 -22 24 -22 26 -6 38 11 8 13
13 5 13 -7 0 -11 9 -9 22 2 12 -3 23 -11 26 -10 3 -12 0 -8 -11z m7 -37 c0 -5
-5 -10 -11 -10 -5 0 -7 5 -4 10 3 6 8 10 11 10 2 0 4 -4 4 -10z m-6 -116 c3
-8 2 -12 -4 -9 -6 3 -10 10 -10 16 0 14 7 11 14 -7z"/>
<path d="M1340 9143 c0 -14 8 -22 26 -26 20 -3 23 -2 12 7 -7 6 -19 17 -25 25
-11 13 -13 12 -13 -6z"/>
<path d="M163 9125 c0 -8 4 -12 9 -9 5 3 6 10 3 15 -9 13 -12 11 -12 -6z"/>
<path d="M10 9115 c-8 -43 -4 -107 7 -116 7 -7 13 -18 13 -26 0 -8 4 -12 9 -9
12 8 2 46 -13 46 -6 0 -4 5 5 10 9 5 15 19 13 32 -1 13 -3 31 -3 41 -1 10 -5
16 -10 13 -5 -4 -12 0 -14 6 -3 7 -6 9 -7 3z"/>
<path d="M1320 9100 c0 -5 5 -12 10 -15 20 -12 9 -24 -18 -20 -20 2 -29 -1
-29 -11 0 -8 4 -14 9 -14 4 0 8 5 8 10 0 6 5 10 11 10 5 0 7 -5 3 -11 -4 -7 1
-7 16 1 12 6 19 18 16 25 -3 8 0 15 7 18 6 2 1 6 -11 9 -12 4 -22 2 -22 -2z"/>
<path d="M1391 9096 c-8 -10 -9 -16 -1 -21 6 -4 9 -1 8 7 -2 7 3 12 10 10 8
-1 11 2 7 8 -8 13 -10 13 -24 -4z"/>
<path d="M1420 9070 c8 -5 20 -10 25 -10 6 0 3 5 -5 10 -8 5 -19 10 -25 10 -5
0 -3 -5 5 -10z"/>
<path d="M1370 9063 c5 -2 8 -9 4 -14 -3 -5 0 -9 6 -9 15 0 7 23 -8 26 -7 1
-8 0 -2 -3z"/>
<path d="M312 9016 c7 -8 15 -12 17 -11 5 6 -10 25 -20 25 -5 0 -4 -6 3 -14z"/>
<path d="M1210 9013 c5 -2 8 -9 5 -13 -3 -5 -1 -11 4 -14 5 -4 8 2 7 11 -2 9
-8 18 -15 19 -6 1 -7 0 -1 -3z"/>
<path d="M1380 9000 c0 -5 5 -10 10 -10 6 0 10 5 10 10 0 6 -4 10 -10 10 -5 0
-10 -4 -10 -10z"/>
<path d="M336 8983 c-6 -14 -5 -15 5 -6 7 7 10 15 7 18 -3 3 -9 -2 -12 -12z"/>
<path d="M380 8989 c0 -5 5 -7 10 -4 6 3 10 8 10 11 0 2 -4 4 -10 4 -5 0 -10
-5 -10 -11z"/>
<path d="M467 8986 c-4 -10 -6 -19 -5 -20 2 -1 12 -8 23 -16 18 -13 19 -13 9
0 -7 8 -14 24 -16 35 -3 19 -4 19 -11 1z"/>
<path d="M1248 8978 c-15 -15 -16 -18 -3 -18 9 0 18 7 22 15 8 23 0 24 -19 3z"/>
<path d="M1169 8973 c-13 -16 -12 -17 3 -5 13 10 17 10 21 0 2 -7 7 -10 11 -7
4 3 0 11 -7 18 -11 9 -17 7 -28 -6z"/>
<path d="M0 8938 c0 -36 4 -35 14 5 4 16 2 27 -4 27 -5 0 -10 -14 -10 -32z"/>
<path d="M54 8955 c-3 -8 -3 -19 1 -25 3 -5 2 -10 -4 -10 -5 0 -12 6 -14 13
-3 7 -6 5 -6 -5 -1 -10 5 -18 13 -18 8 0 17 -12 21 -27 6 -25 8 -26 17 -10 7
13 6 22 -2 33 -10 11 -9 14 3 14 8 0 17 7 21 15 3 8 1 15 -4 15 -6 0 -10 -4
-10 -10 0 -5 -5 -10 -11 -10 -6 0 -9 9 -6 20 6 23 -11 28 -19 5z"/>
<path d="M146 8961 c-28 -6 -29 -7 -13 -23 19 -18 23 -33 7 -23 -5 3 -10 1
-10 -4 0 -6 7 -11 15 -11 8 0 15 6 15 13 0 9 3 8 9 -2 13 -20 24 5 12 27 -6
11 -7 22 -4 26 3 3 4 5 2 5 -2 -1 -17 -4 -33 -8z"/>
<path d="M1360 8955 c-8 -9 -8 -15 -2 -15 12 0 26 19 19 26 -2 2 -10 -2 -17
-11z"/>
<path d="M1425 8960 c-3 -5 -12 -7 -20 -3 -22 8 -18 -4 4 -16 15 -9 20 -7 24
9 5 21 2 26 -8 10z"/>
<path d="M510 8949 c0 -5 5 -7 10 -4 6 3 10 8 10 11 0 2 -4 4 -10 4 -5 0 -10
-5 -10 -11z"/>
<path d="M580 8950 c-11 -7 -11 -10 -2 -10 8 0 10 -5 6 -12 -5 -10 -4 -10 6
-1 17 16 9 35 -10 23z"/>
<path d="M1283 8944 c0 -6 9 -9 20 -6 14 3 18 1 13 -6 -5 -8 -1 -10 10 -5 11
4 13 8 6 11 -7 2 -10 7 -8 10 2 4 -6 7 -18 7 -13 0 -23 -5 -23 -11z"/>
<path d="M270 8946 c0 -2 7 -7 16 -10 8 -3 12 -2 9 4 -6 10 -25 14 -25 6z"/>
<path d="M1173 8933 c-20 -7 -15 -19 7 -19 11 0 20 4 20 8 0 10 -13 16 -27 11z"/>
<path d="M283 8895 c-3 -9 -3 -18 -1 -21 3 -3 8 4 11 16 6 23 -1 27 -10 5z"/>
<path d="M1326 8898 c3 -4 9 -8 15 -8 5 0 9 4 9 8 0 5 -7 9 -15 9 -8 0 -12 -4
-9 -9z"/>
<path d="M1429 8910 c-4 -21 -5 -50 0 -50 3 0 12 4 18 8 10 6 10 12 -2 28 -8
10 -15 17 -16 14z"/>
<path d="M196 8893 c-12 -12 -6 -25 9 -19 9 3 15 0 15 -9 0 -7 4 -16 9 -19 4
-3 6 5 4 19 -5 23 -26 39 -37 28z"/>
<path d="M500 8890 c0 -5 5 -10 10 -10 6 0 10 5 10 10 0 6 -4 10 -10 10 -5 0
-10 -4 -10 -10z"/>
<path d="M660 8885 c0 -8 4 -15 10 -15 5 0 7 7 4 15 -4 8 -8 15 -10 15 -2 0
-4 -7 -4 -15z"/>
<path d="M2 8861 c1 -16 5 -28 9 -26 6 5 0 55 -7 55 -3 0 -3 -13 -2 -29z"/>
<path d="M1188 8883 c6 -2 12 -9 12 -14 0 -6 -6 -7 -12 -3 -7 4 -9 3 -5 -1 4
-5 14 -10 22 -11 12 -2 12 2 5 17 -6 10 -16 19 -23 18 -9 0 -9 -2 1 -6z"/>
<path d="M1025 8871 c-3 -5 -2 -12 3 -15 5 -3 9 1 9 9 0 17 -3 19 -12 6z"/>
<path d="M1244 8869 c1 -7 10 -13 19 -15 9 -1 15 2 11 7 -3 5 -9 7 -14 4 -4
-3 -11 0 -13 5 -3 6 -4 5 -3 -1z"/>
<path d="M410 8859 c0 -7 -8 -18 -17 -26 -16 -13 -15 -13 6 -2 21 10 23 9 19
-8 -3 -11 0 -20 6 -20 6 0 12 15 13 34 1 23 -3 33 -13 33 -8 0 -14 -5 -14 -11z"/>
<path d="M1340 8860 c0 -6 7 -10 15 -10 8 0 15 2 15 4 0 2 -7 6 -15 10 -8 3
-15 1 -15 -4z"/>
<path d="M61 8833 c-1 -22 -21 -34 -21 -13 0 6 -9 1 -20 -10 -23 -23 -26 -34
-6 -27 8 3 17 1 20 -6 2 -7 5 -4 5 6 1 9 6 17 12 17 6 0 9 -7 5 -15 -7 -18 5
-20 22 -3 14 14 16 62 3 54 -5 -4 -12 0 -14 6 -3 7 -6 3 -6 -9z"/>
<path d="M910 8841 c0 -6 9 -9 19 -8 11 0 17 5 15 9 -7 11 -34 10 -34 -1z"/>
<path d="M970 8835 c0 -8 2 -15 4 -15 2 0 6 7 10 15 3 8 1 15 -4 15 -6 0 -10
-7 -10 -15z"/>
<path d="M480 8809 c0 -5 5 -7 10 -4 6 3 10 8 10 11 0 2 -4 4 -10 4 -5 0 -10
-5 -10 -11z"/>
<path d="M550 8795 c-2 -29 -2 -29 -9 -5 l-7 25 -5 -25 c-6 -31 23 -64 40 -47
13 13 15 61 2 52 -5 -3 -12 3 -14 12 -3 11 -6 6 -7 -12z"/>
<path d="M155 8800 c-3 -5 -12 -7 -20 -4 -10 4 -16 -3 -20 -23 -4 -15 -8 -33
-10 -40 -2 -7 2 -10 9 -7 8 3 13 11 13 17 -1 31 4 48 12 43 5 -3 14 1 21 9 7
8 10 15 7 15 -3 0 -8 -4 -12 -10z"/>
<path d="M215 8780 c19 -21 30 -27 20 -10 -3 6 1 10 10 10 18 0 17 -28 -2 -48
-9 -10 -18 -10 -33 -2 -12 6 -20 7 -20 1 0 -5 6 -12 13 -14 9 -4 8 -8 -3 -16
-9 -7 -16 -7 -18 -1 -2 6 -9 7 -15 3 -7 -4 -6 1 2 10 9 11 10 17 2 17 -6 0
-11 8 -11 18 -1 16 -1 16 -11 0 -11 -19 4 -58 22 -58 6 0 7 -6 3 -12 -6 -10
-4 -10 8 0 13 11 17 9 22 -11 6 -25 36 -33 36 -10 0 7 5 13 10 13 7 0 7 7 -1
21 -6 12 -7 19 -2 16 4 -3 13 6 20 19 7 16 8 24 1 24 -6 0 -5 6 2 15 17 20 7
29 -37 32 -34 2 -35 2 -18 -17z"/>
<path d="M290 8776 c0 -23 16 -27 17 -5 1 10 -2 19 -8 19 -5 0 -9 -6 -9 -14z"/>
<path d="M1020 8780 c0 -5 5 -10 11 -10 5 0 7 5 4 10 -3 6 -8 10 -11 10 -2 0
-4 -4 -4 -10z"/>
<path d="M913 8774 c4 -4 1 -14 -6 -23 -10 -14 -10 -14 4 -4 9 7 19 10 22 6 4
-3 7 -2 7 4 0 6 -8 14 -17 17 -10 4 -14 4 -10 0z"/>
<path d="M1070 8740 c-9 -6 -10 -10 -3 -10 6 0 15 5 18 10 8 12 4 12 -15 0z"/>
<path d="M970 8736 c0 -2 7 -7 16 -10 8 -3 12 -2 9 4 -6 10 -25 14 -25 6z"/>
<path d="M1101 8731 c-8 -5 -11 -16 -8 -26 9 -21 26 -10 24 15 -1 11 -1 20 -2
20 0 0 -6 -4 -14 -9z"/>
<path d="M0 8706 c0 -13 7 -27 16 -30 11 -4 14 -13 10 -30 -3 -14 -2 -28 4
-31 10 -6 14 7 11 33 -1 6 3 12 9 12 6 0 9 4 6 9 -3 5 2 12 11 15 9 4 20 1 24
-6 10 -15 2 -28 -17 -28 -8 0 -14 -5 -14 -11 0 -5 4 -8 9 -5 5 4 12 0 14 -6 4
-10 6 -10 6 0 1 7 5 11 9 8 10 -6 9 16 -3 58 -8 28 -9 28 -22 10 -12 -16 -15
-17 -23 -4 -8 13 -10 12 -10 -3 0 -10 -4 -15 -10 -12 -5 3 -10 15 -10 26 0 10
-4 19 -10 19 -5 0 -10 -11 -10 -24z"/>
<path d="M295 8711 c2 -9 4 -19 4 -23 1 -5 6 -8 12 -8 5 0 7 5 3 11 -3 6 -1
15 6 19 8 5 6 9 -8 12 -15 4 -19 1 -17 -11z"/>
<path d="M437 8716 c-4 -9 3 -11 19 -8 25 5 25 14 -1 18 -7 1 -16 -4 -18 -10z"/>
<path d="M269 8697 c-2 -30 -2 -31 -12 -69 -4 -15 -3 -38 3 -52 9 -23 7 -26
-14 -26 -13 0 -27 8 -30 17 -6 14 -9 15 -15 4 -7 -10 -10 -9 -14 3 -4 9 -2 16
2 16 5 0 7 9 4 21 -4 15 -8 17 -14 8 -6 -11 -9 -10 -14 3 -4 10 -4 22 0 27 4
7 -4 10 -19 9 -13 -1 -23 -5 -21 -8 6 -9 -8 -25 -30 -38 -19 -10 -19 -11 5
-21 18 -7 20 -10 8 -10 -11 -1 -18 -9 -18 -21 0 -21 8 -25 25 -12 15 10 17 32
5 46 -12 15 -3 26 22 26 14 0 18 -7 16 -30 -1 -16 -6 -30 -10 -30 -4 0 -8 -7
-8 -15 0 -9 -6 -12 -15 -9 -13 6 -20 -6 -16 -28 0 -4 -9 -7 -22 -5 -15 1 -22
-3 -21 -15 1 -14 -2 -15 -17 -8 -20 11 -26 5 -23 -27 0 -12 -2 -20 -7 -17 -4
2 -6 11 -2 19 3 8 0 15 -6 15 -6 0 -11 -11 -11 -25 0 -29 11 -31 47 -8 26 17
26 17 15 -4 -9 -17 -9 -22 3 -27 8 -3 15 -1 15 5 0 6 7 8 16 5 12 -4 15 -2 10
9 -3 8 -1 15 5 15 7 0 10 -14 7 -36 -4 -30 -2 -35 14 -31 10 3 21 1 24 -4 3
-5 12 -9 20 -9 11 0 13 6 9 21 -5 14 -1 25 11 33 13 10 14 15 4 21 -7 4 -16 2
-20 -5 -4 -7 -13 -9 -19 -6 -6 4 -9 12 -6 17 4 5 -1 12 -10 15 -11 5 -13 10
-5 19 5 6 7 15 3 18 -3 4 5 7 18 8 22 0 23 1 4 9 -16 7 -16 9 -4 9 9 1 19 8
23 16 3 8 12 12 21 9 8 -3 12 -11 8 -18 -4 -6 1 -5 10 2 14 12 16 11 12 -7 -2
-13 1 -21 8 -20 31 4 48 -2 41 -13 -5 -10 -3 -10 7 0 12 11 12 14 0 21 -8 5
-15 22 -16 38 -1 15 -5 35 -9 43 -3 9 1 24 9 35 12 14 18 16 21 8 9 -21 21
-15 19 9 -1 12 -8 24 -16 27 -8 3 -16 15 -17 26 -6 31 -12 31 -13 2z m-99
-152 c-7 -9 -15 -13 -17 -11 -6 6 20 36 26 30 2 -2 -2 -10 -9 -19z m-56 -63
c2 -4 -4 -9 -15 -9 -11 -1 -17 2 -14 8 7 11 22 12 29 1z"/>
<path d="M1207 8714 c7 -3 9 -12 6 -20 -3 -8 0 -14 7 -14 6 0 8 5 5 10 -3 6 0
10 7 10 9 0 9 3 -2 10 -8 5 -19 9 -25 9 -5 0 -5 -3 2 -5z"/>
<path d="M343 8695 c0 -16 25 -15 31 1 3 8 -2 12 -13 11 -10 0 -18 -6 -18 -12z"/>
<path d="M356 8638 c3 -4 11 -5 19 -1 21 7 19 12 -4 10 -11 0 -18 -5 -15 -9z"/>
<path d="M535 8640 c-3 -6 1 -7 9 -4 18 7 21 14 7 14 -6 0 -13 -4 -16 -10z"/>
<path d="M330 8621 c0 -25 6 -27 13 -6 4 8 2 17 -3 20 -6 4 -10 -3 -10 -14z"/>
<path d="M490 8621 c0 -6 4 -13 10 -16 6 -3 7 1 4 9 -7 18 -14 21 -14 7z"/>
<path d="M656 8607 c3 -10 9 -15 12 -12 3 3 0 11 -7 18 -10 9 -11 8 -5 -6z"/>
<path d="M414 8598 c-11 -18 -12 -48 -2 -42 5 4 7 12 4 19 -2 7 1 18 7 24 6 6
8 11 5 11 -4 0 -10 -6 -14 -12z"/>
<path d="M436 8593 c-6 -14 -5 -15 5 -6 7 7 10 15 7 18 -3 3 -9 -2 -12 -12z"/>
<path d="M330 8583 c0 -6 8 -17 18 -24 16 -13 16 -13 2 6 -8 11 -16 22 -17 24
-2 2 -3 0 -3 -6z"/>
<path d="M731 8574 c0 -11 3 -14 6 -6 3 7 2 16 -1 19 -3 4 -6 -2 -5 -13z"/>
<path d="M453 8565 c0 -8 4 -12 8 -10 4 3 10 -2 13 -11 5 -13 9 -14 21 -4 13
11 21 8 46 -16 16 -15 27 -34 25 -40 -3 -7 3 -10 15 -7 10 3 19 10 19 15 0 5
4 7 8 4 4 -2 14 -1 22 5 12 7 11 9 -6 9 -11 0 -25 -5 -31 -11 -9 -9 -11 -8 -9
3 1 8 10 23 19 33 10 9 17 18 15 19 -2 1 -11 8 -21 15 -15 12 -17 12 -12 -1
10 -24 -19 -42 -44 -26 -12 7 -21 17 -21 22 0 4 -7 3 -15 -4 -11 -10 -18 -9
-30 4 -20 20 -22 20 -22 1z m147 -18 c0 -2 -10 -12 -22 -23 l-23 -19 19 23
c18 21 26 27 26 19z"/>
<path d="M300 8554 c0 -4 8 -13 18 -20 16 -13 16 -14 -3 -8 -12 3 -16 2 -9 -3
6 -4 17 -21 25 -38 14 -30 38 -39 51 -20 13 17 9 35 -7 35 -9 0 -12 -6 -9 -17
5 -14 4 -15 -4 -4 -8 11 -10 11 -15 0 -4 -10 -6 -9 -6 3 -1 9 4 18 10 20 7 2
2 15 -13 31 -25 26 -38 34 -38 21z"/>
<path d="M750 8554 c0 -13 20 -32 35 -32 5 0 11 -5 13 -11 2 -6 -3 -8 -12 -5
-9 3 -16 1 -16 -4 0 -16 18 -24 26 -11 4 8 9 7 16 -2 7 -10 8 -8 5 9 -3 12 -1
22 5 22 5 0 6 5 3 10 -3 6 -17 8 -31 6 -15 -3 -27 1 -34 12 -5 9 -10 12 -10 6z"/>
<path d="M8 8533 c7 -3 16 -2 19 1 4 3 -2 6 -13 5 -11 0 -14 -3 -6 -6z"/>
<path d="M60 8530 c0 -5 9 -10 21 -10 11 0 17 5 14 10 -3 6 -13 10 -21 10 -8
0 -14 -4 -14 -10z"/>
<path d="M494 8524 c-4 -10 -9 -22 -11 -26 -1 -3 6 -4 16 -1 10 3 18 11 17 19
-4 23 -15 28 -22 8z"/>
<path d="M0 8500 c0 -11 4 -20 9 -20 5 0 7 9 4 20 -3 11 -7 20 -9 20 -2 0 -4
-9 -4 -20z"/>
<path d="M200 8495 c0 -9 -10 -20 -22 -25 -14 -5 -17 -9 -8 -10 8 -1 25 -3 37
-4 19 -2 21 0 10 13 -10 12 -9 14 6 8 23 -9 22 5 -3 21 -17 10 -20 10 -20 -3z"/>
<path d="M880 8500 c-12 -8 -10 -10 8 -10 13 0 20 4 17 10 -7 12 -6 12 -25 0z"/>
<path d="M305 8480 c-3 -5 -1 -10 4 -10 6 0 11 5 11 10 0 6 -2 10 -4 10 -3 0
-8 -4 -11 -10z"/>
<path d="M290 8456 c0 -2 9 -6 20 -9 11 -3 18 -1 14 4 -5 9 -34 13 -34 5z"/>
<path d="M380 8403 c0 -6 -8 -10 -17 -8 -10 1 -13 0 -6 -2 7 -2 9 -11 6 -19
-7 -19 5 -18 24 2 12 11 13 18 4 27 -8 8 -11 8 -11 0z"/>
<path d="M280 8390 c0 -5 5 -10 11 -10 5 0 7 5 4 10 -3 6 -8 10 -11 10 -2 0
-4 -4 -4 -10z"/>
<path d="M480 8370 c0 -5 5 -10 10 -10 6 0 10 5 10 10 0 6 -4 10 -10 10 -5 0
-10 -4 -10 -10z"/>
<path d="M520 8350 c-9 -6 -10 -10 -3 -10 6 0 15 5 18 10 8 12 4 12 -15 0z"/>
<path d="M200 8270 c0 -5 5 -10 11 -10 5 0 7 5 4 10 -3 6 -8 10 -11 10 -2 0
-4 -4 -4 -10z"/>
</g>
</svg>
